<svg version="1.1" xmlns="http://www.w3.org/2000/svg" style="display: block;" viewBox="0 0 2048 2048" width="1024" height="1024">
<path transform="translate(0,0)" fill="rgb(253,253,253)" d="M 0 0 L 2048 0 L 2048 2048 L 0 2048 L 0 0 z"/>
<path transform="translate(0,0)" fill="rgb(39,57,82)" d="M 910.588 617.743 C 911.239 617.861 911.892 617.97 912.541 618.097 C 919.155 619.393 925.464 624.127 929.027 629.798 C 932.709 635.658 934.173 643.182 932.576 649.952 C 930.42 659.098 924.638 664.029 916.818 668.538 C 913.488 669.132 911.616 669.173 908.65 667.458 C 907.416 665.838 906.62 664.929 906.361 662.834 C 905.757 657.946 913.869 654.765 916.171 650.703 C 922.1 640.244 908.353 634.535 906.797 625.657 C 907.367 622.17 908.424 620.504 910.588 617.743 z"/>
<path transform="translate(0,0)" fill="rgb(39,57,82)" d="M 949.793 580.511 C 961.193 584.181 970.912 593.726 977.662 603.366 A 76.7417 76.7417 0 0 1 990.26 660.256 C 987.521 675.576 979.878 688.121 966.965 697.045 C 965.282 697.806 963.819 697.963 962.006 698.242 C 959.391 697.335 958.781 697.337 957.149 695.161 C 956.64 687.962 967.491 677.166 970.937 670.598 C 981.68 650.126 974.848 621.716 961.568 604.035 C 957.988 599.27 948.825 590.916 947.519 585.588 C 947.158 584.118 949.045 581.81 949.793 580.511 z"/>
<path transform="translate(0,0)" fill="rgb(39,57,82)" d="M 1057.85 536.103 C 1060.02 535.995 1062.35 535.849 1064.48 536.347 C 1076.72 539.202 1096.21 567.378 1102.54 577.939 C 1120.95 608.675 1127.41 647.046 1118.47 681.895 C 1111.71 708.214 1091.67 742.556 1067.93 756.719 C 1064.16 756.729 1060.14 755.684 1057.38 752.973 C 1052.48 748.172 1052.45 740.962 1052.24 734.597 C 1069.43 715.101 1086.12 700.235 1092.94 673.99 C 1101.2 642.173 1094.6 607.532 1073.58 582.138 C 1066.66 573.779 1057.02 566.364 1051.76 556.793 C 1049.73 553.084 1047.87 547.792 1049.49 543.587 C 1051.17 539.255 1053.91 538.041 1057.85 536.103 z"/>
<path transform="translate(0,0)" fill="rgb(39,57,82)" d="M 1140.57 452.354 C 1140.89 452.389 1141.21 452.406 1141.52 452.458 C 1147.82 453.509 1154.39 458.209 1159.63 461.671 A 232.512 232.512 0 0 1 1223.37 522.976 C 1255.96 569.852 1268.34 630.592 1258.13 686.556 C 1247.01 747.513 1210.97 804.874 1159.94 840.305 C 1156.76 842.006 1154.1 843.274 1150.46 843.365 C 1148.22 842.528 1146.57 841.414 1145.36 839.256 C 1142.08 833.416 1149.29 826.219 1153.33 822.825 C 1193.34 789.28 1217.62 756.732 1232.73 705.967 C 1255.25 630.28 1232.81 549.459 1177.5 493.496 A 239.811 239.811 0 0 0 1159.76 477.404 C 1153.89 472.547 1142.67 467.042 1139.13 460.469 C 1138.59 457.134 1139.33 455.348 1140.57 452.354 z"/>
<path transform="translate(0,0)" fill="rgb(39,57,82)" d="M 1238.62 378.452 C 1238.92 378.508 1239.23 378.544 1239.53 378.62 C 1246.68 380.455 1255.2 386.504 1261.42 390.398 A 309.296 309.296 0 0 1 1355.32 480.758 A 297.061 297.061 0 0 1 1398.3 702.679 A 320.42 320.42 0 0 1 1285.93 886.479 C 1274.19 896.069 1261.54 904.272 1248.93 912.641 C 1246.07 914.265 1244.3 915.174 1240.99 915.222 C 1238.35 913.832 1238.4 914.044 1237.48 911.23 C 1238.19 908.328 1239.29 906.39 1241.58 904.468 C 1246.62 900.236 1252.79 896.914 1258.09 892.922 C 1269.47 884.348 1280.23 874.693 1290.32 864.655 C 1350.18 805.094 1385.44 730.261 1385.43 644.941 A 294.435 294.435 0 0 0 1291.1 427.098 C 1281.3 418.201 1270.6 409.464 1259.84 401.759 C 1252.27 396.335 1243.05 391.597 1236.47 385.044 C 1236.26 381.966 1237.14 381.097 1238.62 378.452 z"/>
<path transform="translate(0,0)" fill="rgb(39,57,82)" d="M 797.616 45.1456 C 802.57 44.7017 807.546 44.1799 812.47 45.1973 C 818.431 46.4289 823.383 49.6259 826.538 54.8882 C 838.428 74.7216 828.706 152.63 822.636 176.766 C 829.364 172.847 835.67 168.009 842.314 163.889 A 726.041 726.041 0 0 1 885.981 139.26 C 912.329 125.519 967.205 97.2999 996.075 107.269 C 1001.97 109.304 1006.41 113.525 1009.12 119.108 C 1016.41 134.175 1013.24 159.008 1012.21 175.51 C 1007.92 244.52 996.001 322.819 973.982 388.596 C 967.678 407.429 961.377 426.216 952.468 444.014 C 926.342 496.207 881.2 546.455 832.573 578.453 A 378.344 378.344 0 0 1 801.007 596.877 C 790.407 602.453 778.494 607.54 769.275 615.271 C 757.591 625.068 748.503 638.797 738.092 649.999 C 713.213 676.768 681.197 701.018 648.61 717.24 C 662.149 726.537 674.727 738.17 685.461 750.582 C 696.767 763.655 705.688 778.418 716.381 791.951 C 730.174 809.407 764.409 845.64 785.008 852.16 C 786.391 852.598 785.592 852.1 786.862 853.651 C 781.471 859.234 758.723 856.141 750.742 856.39 C 773.013 879.96 795.988 896.027 828.211 902.18 C 811.533 907.856 799.157 907.562 782.021 903.469 C 830.843 932.165 890.598 950.037 947.213 938.543 C 937.673 951.164 925.897 954.554 911.679 959.484 C 932.624 961.269 953.365 966.133 973.943 970.282 C 1022.02 979.976 1069.3 991.636 1116.69 1004.2 C 1254.59 1040.75 1396.06 1075.92 1518.04 1152.81 C 1547.01 1171.06 1577.08 1192.81 1600.26 1218.2 C 1614.79 1234.11 1630.29 1251.39 1642.51 1269.12 C 1650.26 1280.36 1656.67 1292.84 1663.07 1304.89 C 1700.83 1375.99 1710.08 1440.87 1706.14 1520.18 C 1745.27 1539.7 1801.26 1534.52 1838.46 1512.71 C 1845.58 1508.55 1862.37 1494.34 1866.95 1492.87 L 1868.18 1493.99 C 1871.29 1504.81 1868.91 1519.62 1866.59 1530.44 C 1884.12 1515.42 1898.69 1500.07 1912.94 1481.93 C 1915.6 1522.69 1913.1 1559 1893.26 1595.41 C 1901.71 1591.32 1909.39 1585.76 1917.89 1581.61 C 1907.78 1613.47 1896.23 1638.4 1870.01 1660.07 C 1877.4 1661.24 1885.09 1661.08 1892.57 1661.25 C 1873.48 1675.25 1856.96 1692.61 1834.32 1701 C 1810.33 1709.89 1782.61 1706.62 1759.74 1695.97 C 1764.88 1704.3 1770.16 1711.61 1776.94 1718.72 C 1745.05 1719.03 1729.46 1712.05 1705.58 1690.95 C 1712.68 1702.49 1719.01 1709.93 1729.77 1718.34 C 1702.66 1710.41 1690.35 1698.18 1670.07 1680.47 C 1673.23 1687.18 1683.3 1695.35 1688.56 1700.94 C 1709.42 1723.05 1769.92 1781.62 1771.26 1811.13 C 1771.62 1818.92 1768.4 1825.77 1762.94 1831.19 C 1739.38 1854.6 1689.29 1853.04 1658.45 1853.92 A 3331.44 3331.44 0 0 1 1601.9 1855.16 C 1605.47 1862.29 1609.39 1869.36 1610.97 1877.25 C 1612.43 1884.51 1611.49 1892.01 1607.01 1898.07 C 1601.53 1905.48 1593.93 1907.86 1585.28 1909.68 C 1556.24 1915.78 1524.83 1917.52 1495.28 1920.07 A 1093.27 1093.27 0 0 0 1420.65 1928.88 C 1372.5 1936.06 1325.65 1950.97 1277.48 1957.9 C 1250.56 1961.77 1224.1 1960.03 1197.06 1960.18 C 1160.24 1960.39 1121.15 1963.39 1084.75 1956.69 C 1074.96 1954.89 1066.79 1952.09 1058.75 1946.09 A 71.132 71.132 0 0 1 1059.79 1942.49 C 1076.17 1890.5 1112.25 1846.2 1170.25 1844.61 C 1197.29 1843.87 1224.36 1849.43 1251.36 1850.72 C 1292.31 1852.69 1333.23 1850.34 1374.16 1849.35 C 1390.63 1848.95 1419.78 1851.34 1434.04 1844 C 1435.19 1842.57 1436.09 1841.5 1436.34 1839.61 C 1436.86 1835.78 1434.76 1831.82 1432.73 1828.73 C 1415.14 1801.99 1360.19 1777.54 1332.03 1760.1 C 1313.49 1748.6 1295.02 1735.68 1277.89 1722.16 C 1231.01 1685.15 1201.28 1647.38 1167.39 1599.07 C 1155.98 1581.27 1145.91 1562.88 1136.4 1544.01 C 1099.4 1542.69 1065.25 1535.06 1031.02 1521.27 A 1067.7 1067.7 0 0 0 1061.1 1541.32 C 1014.52 1537.92 974.367 1522.09 935.185 1497.45 C 944.822 1527.31 943.641 1542.41 937.778 1572.5 C 931.521 1559.34 924.185 1547.01 916.391 1534.73 C 912.859 1571.6 900.274 1604.5 875.973 1632.8 C 879.38 1621.09 882.361 1609.33 884.142 1597.26 C 877.03 1607.41 872.111 1619.06 864.722 1629.25 C 853.22 1645.11 840.395 1660.08 828.614 1675.75 A 683.698 683.698 0 0 0 785.256 1742 A 1972.29 1972.29 0 0 0 738.791 1829.01 C 730.226 1846.31 712.763 1892.52 702.196 1904.33 C 693.702 1913.82 664.916 1929.68 652.883 1938.22 C 638.485 1948.44 625.03 1960.12 610.464 1970.04 C 604.815 1973.89 598.637 1977.5 592.36 1980.22 C 584.893 1983.45 573.884 1984.21 565.778 1984.85 C 537.57 1987.09 439.902 1987.12 420.005 1968.87 C 415.455 1964.7 413.99 1959.02 413.941 1953.02 C 413.798 1935.39 424.057 1919.46 436.285 1907.61 C 454.235 1890.2 480.684 1872.04 506.425 1870.48 C 519.693 1869.68 533.258 1871.64 546.569 1871.72 C 566.926 1871.84 583.805 1865.81 598.317 1851.14 C 612.485 1836.81 624.148 1819.27 635.674 1802.82 C 671.697 1751.4 721.813 1673.44 738.36 1613.55 C 743.081 1596.47 743.168 1579.16 743.1 1561.58 C 727.804 1579.23 709.697 1594.55 693.696 1611.59 C 660.667 1646.77 629.185 1683.83 598.59 1721.15 C 585.159 1737.53 571.493 1754.13 559.459 1771.58 C 544.16 1793.76 531.311 1819.17 511.441 1837.83 C 495.96 1852.36 476.385 1859.38 458.755 1870.43 C 447.34 1877.59 437.061 1886.49 425.926 1894.08 C 419.59 1898.39 412.298 1903.5 404.72 1905.13 C 386.625 1909.04 275.55 1906.83 256.772 1902.95 C 251.624 1901.88 246.643 1900.57 243.829 1895.73 C 241.844 1892.32 242.198 1887.47 243.198 1883.83 C 246.759 1870.87 258.094 1856.63 266.653 1846.28 C 278.18 1832.34 292.497 1820.77 309.281 1813.84 C 321.713 1808.71 335.137 1805.57 348.612 1805.39 C 378.041 1804.99 406.423 1816.17 434.231 1800.06 C 441.906 1795.61 447.883 1789.57 453.477 1782.78 C 473.316 1758.7 488.323 1730.53 503.916 1703.64 C 517.946 1679.44 532.552 1655.23 545.191 1630.27 A 1011.17 1011.17 0 0 0 573.606 1567.98 A 706.046 706.046 0 0 0 605.511 1471.34 C 569.989 1444.51 539.162 1391.34 519.823 1351.42 C 520.163 1365.79 521.785 1379.74 524.183 1393.88 C 497.759 1361.95 479.957 1326.92 471.621 1286.18 C 470.927 1296.84 470.841 1307.44 470.809 1318.1 A 284.139 284.139 0 0 1 435.995 1180.64 C 425.75 1189.3 414.871 1195.22 402.643 1200.63 C 413.044 1180.58 417.488 1159.78 423.678 1138.32 C 426.255 1129.39 429.846 1120.79 431.937 1111.73 C 418.151 1117.66 404.454 1122.43 389.985 1126.32 C 399.851 1114.07 410.35 1102.62 417.061 1088.22 C 432.487 1055.09 423.16 1023.02 411.117 990.599 C 385.1 992.63 359.568 999.65 333.227 997.063 C 302.83 994.077 287.187 972.953 269.206 950.896 C 258.451 947.021 247.313 942.236 238.904 934.274 C 227.311 923.299 220.653 902.601 220.346 886.797 C 214.322 878.565 207.709 869.081 205.694 858.933 C 203.03 845.521 211.204 830.245 218.663 819.517 C 231.907 800.468 251.359 783.836 268.675 768.524 C 340.329 705.159 400.08 674.528 494.486 657.277 C 501.922 626.677 506.149 594.928 512.518 564.018 C 534.848 455.646 561.093 348.944 611.58 249.787 A 568.978 568.978 0 0 1 742.361 82.0802 C 758.798 67.5355 776.457 52.0125 797.616 45.1456 z"/>
<path transform="translate(0,0)" fill="rgb(253,253,253)" d="M 1523.38 1718.31 C 1536.7 1725.81 1549.44 1735.12 1562.37 1743.35 C 1579.92 1754.53 1600.51 1765.06 1615.87 1779.07 C 1614.52 1781.14 1611.54 1781.17 1609.16 1781.76 C 1586.98 1784.38 1564.92 1785.34 1542.62 1786.15 C 1536.32 1778.94 1529.89 1771.85 1525.55 1763.23 C 1518.16 1748.55 1518.3 1733.6 1523.38 1718.31 z"/>
<path transform="translate(0,0)" fill="rgb(253,253,253)" d="M 347.301 897.3 C 391.176 904.56 442.614 932.143 476.988 960.502 C 474.29 962.352 470.672 962.29 467.499 962.648 C 449.239 964.79 431.075 967.607 412.789 969.571 C 400.303 942.425 374.458 923.368 347.258 912.477 C 347.392 907.427 347.297 902.353 347.301 897.3 z"/>
<path transform="translate(0,0)" fill="rgb(253,253,253)" d="M 346.943 914.532 C 372.751 928.977 395.242 943.937 409.763 970.477 C 391.554 975.288 372.467 976.785 353.769 978.428 C 346.576 979.149 338.401 979.663 331.177 979.188 C 312.254 977.945 301.572 965.383 290.05 952.041 C 302.711 953.62 313.013 954.14 324.394 947.13 C 336.751 939.519 343.568 928.33 346.943 914.532 z"/>
<path transform="translate(0,0)" fill="rgb(253,253,253)" d="M 335.969 874.958 C 370.41 874.545 404.592 885.942 436.531 897.929 C 452.431 903.897 547.072 946.669 550.171 953.493 L 547.181 954.527 A 2342.74 2342.74 0 0 0 480.756 960.278 C 444.086 928.535 395.812 899.486 346.524 894.558 C 344.017 887.028 341.184 881.04 335.969 874.958 z"/>
<path transform="translate(0,0)" fill="rgb(93,112,124)" d="M 804.917 58.9513 C 805.728 58.9376 806.755 58.8867 807.539 59.0422 C 810.134 59.5571 811.794 60.792 813.237 62.9686 C 823.254 78.0714 809.192 166.334 805.323 186.964 C 801.516 191.028 797.99 194.479 793.375 197.654 C 786.212 190.879 778.311 183.204 768.323 181.18 C 734.657 174.36 683.471 205.368 657.042 223.825 A 698.156 698.156 0 0 1 637.266 237.948 C 663.027 185.17 750.982 79.8544 804.917 58.9513 z"/>
<path transform="translate(0,0)" fill="rgb(93,112,124)" d="M 982.74 121.417 C 984.555 121.318 986.328 121.182 988.125 121.535 C 990.943 122.089 993.77 123.44 995.125 126.135 C 999.528 134.887 996.766 152.299 996.302 162.126 C 992.946 233.193 981.236 299.603 964.167 368.563 C 964.287 324.133 963.091 274.86 944.704 233.615 C 939.077 220.993 930.368 208.665 916.807 203.882 C 891.14 194.83 837.354 217.654 813.565 228.999 C 776.797 247.132 737.659 270.362 710.61 301.52 L 710.657 301.613 L 712.3 300.816 L 710.525 300.305 C 711.28 299.157 712.022 298.05 712.858 296.959 C 758.768 237.035 823.061 192.292 888.873 156.808 C 918.309 140.936 949.14 125.461 982.74 121.417 z"/>
<path transform="translate(0,0)" fill="rgb(253,253,253)" d="M 1630.39 1650.9 C 1641.97 1660.63 1651.68 1675 1661.42 1686.64 C 1682.53 1711.88 1703.28 1737.02 1723.04 1763.34 C 1730.91 1773.82 1739.18 1784.27 1746.06 1795.44 C 1748.84 1799.95 1752.46 1805.99 1752.68 1811.39 C 1752.83 1815.31 1751.18 1818.15 1748.45 1820.78 C 1726.72 1841.64 1628.51 1838.06 1597.09 1836.4 C 1589.72 1836 1587.85 1836.1 1582.69 1830.4 C 1573.91 1820.9 1565.05 1811.55 1555.82 1802.47 C 1575 1802.57 1620.52 1802.35 1635.24 1790.78 C 1637.49 1789.01 1639.17 1786.75 1639.12 1783.75 C 1638.71 1761.54 1553.58 1720.38 1534.72 1704.36 L 1533.64 1703.43 C 1549.31 1692.66 1567.11 1686.11 1584.1 1677.79 C 1600.24 1669.89 1615.3 1660.61 1630.39 1650.9 z"/>
<path transform="translate(0,0)" fill="rgb(253,253,253)" d="M 1897.32 1522.82 L 1898.33 1523.78 C 1898.68 1534.11 1896.13 1546.85 1893.36 1556.78 C 1884.76 1587.56 1867.71 1607.28 1840.23 1622.83 C 1857.19 1621.75 1872.86 1617.91 1889.05 1612.85 A 185.643 185.643 0 0 1 1879.37 1627.8 C 1863.04 1650.12 1844.81 1658.26 1818.24 1662.48 C 1829.19 1669.71 1840.53 1671.91 1853.25 1674.22 C 1835.89 1686.18 1813.47 1690.27 1792.82 1686.9 C 1770.64 1683.29 1749.8 1672.91 1736.58 1654.53 C 1739.79 1671.93 1746.45 1687.4 1755.82 1702.35 C 1725.18 1685.5 1697.59 1658.54 1680.89 1627.87 C 1681.09 1646.56 1684.26 1662.72 1689.47 1680.56 C 1674.37 1666.72 1659.96 1651.59 1649.08 1634.17 L 1659.34 1624.77 C 1674.49 1611.15 1683.53 1595.59 1692.26 1577.52 C 1721.17 1604.38 1750.6 1624.26 1789.85 1632.25 C 1753.6 1618.38 1723.76 1595.21 1695.16 1569.54 C 1699.26 1558.93 1701.43 1547.5 1703.74 1536.39 A 87.3953 87.3953 0 0 0 1717.46 1542.47 C 1754.25 1555.06 1806.24 1549.36 1840.89 1532.55 C 1832.15 1544.96 1822.54 1551.11 1810.27 1559.41 C 1828.28 1553.29 1841.71 1545.8 1854.36 1531.49 C 1847.26 1551.7 1838.19 1564.73 1821.89 1578.56 L 1825.9 1577.49 C 1853.64 1570.01 1877.89 1543.05 1897.32 1522.82 z"/>
<path transform="translate(0,0)" fill="rgb(253,253,253)" d="M 753.708 190.378 C 754.536 190.271 754.236 190.291 755.343 190.274 C 768.218 190.076 776.225 196.7 784.901 205.224 C 746.334 230.347 715.427 268.142 689.247 305.406 C 672.113 329.794 655.291 353.586 640.883 379.746 C 607.486 440.382 585.941 509.412 567.882 575.995 C 561.425 599.801 556.067 623.814 549.256 647.551 L 541.024 648.714 A 867.757 867.757 0 0 1 510.118 653.497 C 520.24 614.494 526.907 574.674 535.357 535.277 C 551.931 458.001 571.977 382.31 602.23 309.112 C 608.715 293.423 615.446 272.506 626.147 259.219 C 632.776 250.988 642.644 244.982 651.216 239.006 C 681.295 218.036 716.581 194.883 753.708 190.378 z"/>
<path transform="translate(0,0)" fill="rgb(253,253,253)" d="M 623.264 1464 C 639.902 1477.9 656.377 1492.4 674.808 1503.89 C 694.763 1516.33 718.349 1527.03 736.736 1541.3 C 717.349 1565.5 688.872 1590.55 667.089 1613.68 C 632.236 1650.7 599.127 1691.01 567.935 1731.16 C 558.021 1743.92 548.727 1757.26 539.581 1770.58 C 528.265 1787.05 510.011 1819.62 493.956 1829.97 C 479.497 1839.29 464.032 1846.2 449.422 1855.08 C 436.418 1862.98 410.057 1886.92 396.182 1888.64 C 395.682 1888.7 395.178 1888.73 394.677 1888.78 C 366.501 1892.01 336.779 1889.05 308.38 1888.97 C 313.738 1880 319.409 1872.08 326.754 1864.63 C 339.687 1853.71 352.939 1849.22 368.318 1842.83 C 353.959 1842.99 339.88 1844.59 326.686 1850.65 C 309.38 1858.6 299.525 1871.36 292.944 1888.93 C 281.821 1889.15 270.685 1888.2 259.589 1887.51 C 265.929 1874.35 275.88 1860.75 286.188 1850.37 C 333.944 1802.24 373.79 1837.37 427.317 1821.12 C 435.699 1818.58 444.215 1815.04 451.123 1809.58 C 476.377 1789.62 496.317 1752.29 512.48 1724.71 C 549.197 1662.04 582.802 1599.02 606.249 1530.04 C 613.656 1508.25 620.398 1486.94 623.264 1464 z"/>
<path transform="translate(0,0)" fill="rgb(253,253,253)" d="M 1386.96 1334.38 C 1404.04 1332.34 1422.72 1336.96 1437.07 1346.39 C 1459.38 1361.05 1472.56 1385.68 1477.65 1411.38 C 1487.47 1460.98 1469.74 1520.33 1441.93 1561.49 C 1417.62 1597.47 1382.98 1629.48 1339.2 1637.87 C 1318.65 1640.31 1299.39 1635.65 1282.82 1623.06 C 1261.08 1606.55 1249.26 1580.52 1245.77 1553.91 C 1238.28 1496.69 1262.23 1436.82 1296.71 1392 C 1318.95 1363.11 1350.09 1339.22 1386.96 1334.38 z"/>
<path transform="translate(0,0)" fill="rgb(39,57,82)" d="M 1391.31 1357.24 C 1404.52 1356.64 1417.15 1360.2 1427.66 1368.4 C 1444.78 1381.77 1450.89 1401.97 1453.01 1422.79 C 1458.34 1475.3 1440.98 1523.43 1407.6 1563.82 C 1388.89 1586.45 1363.44 1606.77 1333.25 1609.59 A 49.0348 49.0348 0 0 1 1301.51 1601.69 C 1286.17 1591.51 1276.47 1573.84 1273.11 1556.04 C 1264.29 1509.31 1283.81 1456.55 1310.17 1418.59 C 1329.93 1390.14 1356.1 1363.72 1391.31 1357.24 z"/>
<path transform="translate(0,0)" fill="rgb(253,253,253)" d="M 1390.81 1365.23 C 1401.09 1364.35 1410.65 1366.27 1419.46 1371.89 C 1433.59 1380.89 1440.97 1396.19 1444.28 1412.09 C 1453.35 1455.73 1440.57 1501.71 1416.44 1538.42 C 1397.45 1567.32 1370.52 1594.66 1335.49 1601.83 C 1325.42 1602.56 1316.49 1601.5 1307.57 1596.2 C 1294.18 1588.25 1286.85 1573.51 1283.32 1558.82 C 1273.3 1517.13 1288.13 1469.28 1310.2 1433.88 C 1328.63 1404.29 1355.45 1373.39 1390.81 1365.23 z"/>
<path transform="translate(0,0)" fill="rgb(39,57,82)" d="M 1390.27 1387.27 C 1397.91 1386.84 1404.94 1388.25 1411.39 1392.53 C 1422.61 1399.96 1427.64 1414.15 1429.89 1426.87 C 1436.66 1465.19 1422.44 1505.42 1400.46 1536.45 C 1385.56 1557.5 1366.26 1575.8 1340.11 1580.33 C 1331.23 1580.28 1323.42 1578.38 1316.05 1573.24 C 1305.34 1565.75 1299.96 1553.41 1298.03 1540.84 C 1292.11 1502.38 1310.2 1458.8 1332.7 1428.46 C 1347.17 1408.94 1365.33 1390.98 1390.27 1387.27 z"/>
<path transform="translate(0,0)" fill="rgb(253,253,253)" d="M 1386.63 1396.23 C 1393.19 1395.55 1398.7 1395.68 1404.73 1398.7 C 1413.01 1402.84 1417.63 1410.29 1420.39 1418.89 C 1429.86 1448.45 1419 1487.26 1404.73 1513.53 C 1390.57 1539.57 1370.8 1563.68 1341.47 1572.43 A 31.764 31.764 0 0 1 1325.54 1569.64 C 1317.15 1565.74 1312.1 1558.83 1309.12 1550.23 C 1298.71 1520.23 1310.26 1485.47 1323.85 1458.48 C 1337.39 1431.61 1357.12 1405.88 1386.63 1396.23 z"/>
<path transform="translate(0,0)" fill="rgb(39,57,82)" d="M 1381.57 1432.15 C 1384.19 1432.06 1387.21 1432.31 1389.66 1433.26 C 1394.08 1434.97 1397.3 1438.46 1398.94 1442.87 C 1404.14 1456.78 1396.56 1478.66 1390.77 1491.52 C 1382.52 1509.86 1370.87 1526.08 1351.53 1533.41 C 1348.4 1533.51 1345.03 1533.65 1342.06 1532.49 C 1338.01 1530.91 1334.83 1527.05 1333.39 1523.02 C 1327.62 1506.89 1336.92 1481.68 1344.37 1467.27 C 1352.8 1450.97 1363.64 1437.93 1381.57 1432.15 z"/>
<path transform="translate(0,0)" fill="rgb(47,181,198)" d="M 1380.43 1439.02 C 1382.36 1439.01 1384.54 1438.86 1386.42 1439.4 C 1389.02 1440.15 1391.59 1442.35 1392.89 1444.7 C 1397.55 1453.06 1392.9 1468.78 1390.04 1477.34 C 1383.76 1496.16 1371.12 1516.65 1352.94 1525.75 C 1350.48 1526.19 1348.48 1526.14 1346.02 1525.99 C 1343.75 1524.81 1342.28 1523.95 1341.03 1521.55 C 1335.88 1511.64 1342.07 1491.3 1345.73 1481.32 C 1352.3 1463.38 1362.63 1447.21 1380.43 1439.02 z"/>
<path transform="translate(0,0)" fill="rgb(253,253,253)" d="M 899.303 212.32 C 903.831 211.574 908.734 211.522 913.106 213.033 C 921.705 216.005 927.806 223.657 931.735 231.544 C 948.794 265.78 956.558 352.048 953.083 390.468 C 952.276 399.392 950.14 407.879 947.175 416.324 C 940.191 436.219 926.845 456.403 914.751 473.673 C 847.622 569.541 769.39 593.51 667.523 638.185 C 652.296 644.863 637.929 653.494 622.92 660.673 C 633.375 649.206 649.321 639.31 662.15 630.561 C 682.266 616.844 702.494 603.481 723.768 591.617 C 761.283 570.694 801.742 552.192 834.458 523.898 C 885.395 479.844 930.844 401.895 935.529 334.043 C 933.163 341.602 931.473 349.403 929.303 357.032 C 909.239 427.586 868.188 492.176 807.155 534.161 C 778.854 553.628 746.916 569.392 716.907 586.118 C 691.994 600.337 666.694 615.868 644.043 633.48 C 671.884 595.816 689.806 551.824 702.795 507.06 C 708.496 487.411 712.786 467.358 717.994 447.574 C 730.809 398.886 748.041 348.611 777.953 307.631 A 255.923 255.923 0 0 1 808.37 273.167 C 813.413 268.477 819.142 264.523 823.957 259.63 L 823.446 258.946 C 814.457 262.348 799.127 277.517 792.105 284.494 C 710.28 365.788 712.558 489.907 661.997 589.352 C 654.149 604.787 643.905 623.402 632.085 636.25 C 631.884 636.469 631.677 636.682 631.472 636.897 C 644.487 598.512 650.109 559.518 658.168 519.977 C 671.879 452.698 698.097 362.514 738.019 306.501 C 772.334 258.355 841.619 221.917 899.303 212.32 z"/>
<path transform="translate(0,0)" fill="rgb(253,253,253)" d="M 542.423 696.027 C 565.122 671.327 581.081 593.875 590.223 559.392 C 609.434 486.934 641.954 390.923 690.83 333.091 C 697.356 325.369 704.859 318.672 712.378 311.948 C 718.235 306.711 724.016 301.037 730.633 296.767 C 674.35 372.127 652.246 463.579 635.213 554.312 C 629.183 586.436 624.14 625.872 610.048 655.485 C 601.238 673.996 584.191 689.921 567.797 701.747 C 588.086 694.332 607.222 683.148 626.842 674.065 C 666.433 655.735 706.984 637.899 747.697 622.202 C 708.968 660.174 667.503 695.706 614.813 712.54 C 595.627 718.671 573.812 720.018 555.446 727.89 C 580.35 730.752 605.575 730.892 630.03 724.84 C 671.23 746.967 691.179 791.314 722.522 823.677 C 731.282 832.722 740.855 840.011 751.422 846.794 C 719.583 837.309 698.127 821.336 673.33 799.92 L 673.463 799.435 L 674.373 800.81 L 671.038 798.026 L 670.999 798.377 L 672.512 798.44 L 671.69 799.58 C 679.983 809.364 689.783 818.076 699.002 826.981 C 721.189 848.411 743.584 870.877 770.011 887.062 C 749.702 882.203 734.917 875.583 718.043 863.377 C 724.354 871.927 732.695 879.522 740.457 886.772 C 770.242 914.587 793.268 927.794 830.127 943.812 C 806.731 939.729 783.339 939.734 760.051 934.301 C 766.415 940.758 772.744 947.773 779.881 953.368 C 801.921 970.647 832.048 981.053 859.053 986.918 C 866.958 988.635 875.741 991.561 883.769 991.897 L 883.935 991.363 C 857.999 981.374 817.404 970.078 798.045 950.529 C 821.025 956.357 840.78 966.462 861.507 977.59 C 873.337 983.941 885.385 991.922 898.532 994.987 C 873.065 981.148 847.937 966.413 821.305 954.917 C 834.568 954.977 847.731 956.372 860.977 956.676 C 872.74 956.946 884.816 956.158 896.511 957.139 C 890.455 959.607 884.408 962.302 878.128 964.136 C 926.081 987.67 977.641 1029.73 1029.06 1042.47 L 1029.15 1043.88 L 1029.55 1040.9 L 1030.32 1042.74 L 1032.09 1042.64 L 1029.98 1041.87 L 1029.68 1042.64 L 1032.13 1042.69 C 1031.57 1042.52 1031.02 1042.36 1030.46 1042.18 C 1005.17 1034.02 946.7 993.56 920.87 976.763 C 929.488 978.629 938.366 980.274 946.65 983.335 C 971.843 992.646 999.335 1013.36 1022.93 1027.4 C 1032.93 1033.35 1043.07 1039.97 1054.13 1043.75 C 1039.03 1033.71 1024.03 1023.22 1008.47 1013.91 C 991.789 1003.93 974.043 995.004 958.246 983.665 A 2321.53 2321.53 0 0 1 1058.52 1007.74 C 1063.94 1015.12 1070.39 1021.67 1076.64 1028.36 C 1106.19 1060 1139.54 1084.33 1179.24 1101.83 C 1186.68 1105.11 1195.04 1109.69 1203 1110.97 L 1204.06 1110.33 C 1194.86 1103.46 1181.05 1098.02 1170.8 1091.94 C 1139.34 1073.29 1104.29 1045.46 1083.15 1015.13 L 1110.12 1025.38 C 1112.36 1025.2 1111.51 1025.17 1113.66 1025.37 C 1114.15 1025.42 1114.63 1025.48 1115.12 1025.53 L 1115.08 1022.96 L 1113.98 1021.64 C 1116.95 1021.56 1180.23 1038.12 1184.97 1039.85 C 1188.66 1041.19 1192.41 1042.96 1195.22 1045.75 C 1207.91 1058.34 1218.91 1072.89 1231.41 1085.77 C 1259.01 1114.22 1295.44 1139.19 1331.32 1156.01 C 1312.42 1141.69 1292.61 1129.28 1275.04 1113.2 C 1253.27 1093.26 1235.4 1070.14 1214.56 1049.47 C 1232.26 1058.8 1250.29 1067.99 1266.5 1079.78 C 1288.95 1096.09 1308.77 1116.03 1330.13 1133.7 C 1321.95 1123.14 1313.78 1112.48 1304.23 1103.1 C 1285.11 1084.34 1258.76 1067.54 1235.03 1055.13 A 1322.23 1322.23 0 0 1 1337.5 1086.91 L 1338.18 1087.8 C 1347.38 1099.94 1355.19 1113.23 1364.08 1125.64 C 1393.2 1166.34 1412.66 1183.28 1452.08 1213.02 L 1452.93 1212.54 C 1435.13 1193.91 1416.27 1177.1 1400.29 1156.66 C 1385.07 1137.19 1373.69 1115.13 1356.27 1097.38 L 1355.47 1096.58 C 1373.9 1109.83 1392.02 1122.8 1408.32 1138.72 C 1434.62 1164.41 1457.05 1193.88 1484.31 1218.65 L 1484.31 1219.8 L 1485.88 1219.41 C 1483.48 1213.21 1475.12 1205.16 1470.87 1199.79 C 1442.04 1163.31 1412.65 1129.94 1375.01 1102.13 C 1406.32 1114.92 1465.89 1136.19 1490.39 1156.73 C 1499.36 1164.25 1503.17 1179.56 1508.11 1190.05 C 1525.63 1227.26 1543 1264.93 1569.98 1296.38 C 1573.92 1300.97 1577.87 1306.21 1582.73 1309.83 C 1579.27 1302.99 1574.48 1296.98 1570.47 1290.47 C 1563.86 1279.71 1557.78 1268.47 1552.08 1257.21 C 1538.65 1230.64 1528.44 1202.63 1514.24 1176.42 A 1035.29 1035.29 0 0 1 1531.01 1189.4 L 1533.37 1186.21 L 1532.6 1184.9 L 1533.7 1184.79 C 1567.54 1208.11 1587.64 1227.86 1613.92 1259.46 C 1619.93 1266.69 1627.81 1274.73 1631.36 1283.55 C 1634.3 1290.85 1634.77 1299.13 1635.77 1306.88 C 1638.91 1331.05 1642.92 1356.14 1659.95 1374.65 C 1659.4 1361.85 1658.22 1349.08 1657.76 1336.27 C 1669.54 1359.86 1677 1386.56 1684.77 1411.71 C 1670.54 1394.21 1656.98 1376.94 1640.45 1361.49 C 1649.35 1384.96 1679.6 1410.97 1686.71 1431.62 C 1692.79 1449.3 1690.55 1485.04 1689.51 1504.26 C 1688.45 1523.91 1686.21 1543.75 1679.69 1562.42 C 1663.32 1609.26 1619.68 1642.36 1576.41 1663.01 C 1550.41 1675.42 1520.87 1683.99 1507.08 1711.66 C 1501.96 1721.94 1500.23 1733.08 1501.41 1744.46 C 1505.9 1787.93 1552.4 1820.84 1578.57 1853.12 C 1584.77 1860.77 1592.11 1870.45 1594.91 1880.04 C 1595.87 1883.32 1595.62 1885.18 1594.02 1888.15 C 1584.75 1893.91 1569.11 1894.79 1558.36 1896.71 C 1559.78 1892.91 1560.77 1889.02 1561.21 1884.97 C 1562.1 1876.56 1559.93 1867.54 1555.73 1860.25 C 1540.37 1833.6 1514.28 1812.06 1493.51 1789.64 A 1331.26 1331.26 0 0 1 1438.64 1725.67 C 1442.76 1734.32 1448.99 1742.18 1454.66 1749.86 A 770.661 770.661 0 0 0 1490.54 1794.56 C 1511.98 1819.07 1545.58 1847.63 1553.64 1879.92 C 1552.27 1884.67 1550.55 1890.21 1546.85 1893.7 C 1546.04 1894.47 1545.12 1895.18 1544.16 1895.75 C 1534.92 1901.23 1471.38 1905.14 1457.14 1906.83 C 1416.71 1911.62 1376.69 1919.6 1336.94 1928.34 C 1313.78 1933.43 1290.44 1940.57 1266.79 1942.82 C 1246.27 1944.77 1225.55 1944.29 1204.97 1944.22 A 2740.27 2740.27 0 0 1 1133.56 1943.5 C 1136.82 1935.9 1140.5 1928.57 1145.73 1922.1 C 1162.78 1901.03 1188.77 1897.51 1214.01 1894.86 C 1195.36 1890.55 1174.98 1889.47 1157.12 1897.52 C 1138.15 1906.06 1124.63 1924.18 1117.39 1943.18 C 1104.23 1942.52 1091.13 1941.23 1078.29 1938.27 C 1082.98 1927.25 1087.87 1916.49 1094.58 1906.53 C 1108.51 1885.85 1126.34 1869.9 1150.82 1863.38 C 1180.86 1855.38 1222.99 1864.81 1254.49 1866.76 C 1293.92 1869.21 1333.18 1866.91 1372.6 1866.08 C 1390.86 1865.69 1413.52 1867.45 1431.22 1863.65 C 1438.8 1862.02 1446.06 1858.81 1450.21 1851.91 C 1461.22 1833.61 1443.59 1812.67 1430.16 1801.46 C 1400.21 1776.45 1362.4 1760.17 1329.79 1738.7 C 1307.78 1724.23 1286.28 1708.78 1266.82 1690.98 C 1210.71 1639.65 1149.57 1554.14 1129.7 1480.54 C 1121.26 1449.3 1119.44 1415.77 1136.35 1387 C 1160.01 1346.75 1204.52 1324.14 1248.43 1313.22 C 1291.54 1302.5 1344.68 1304.25 1383.46 1327.78 C 1347.51 1334.23 1317.83 1352.49 1294.88 1380.92 C 1256.05 1429.01 1231.01 1491.43 1237.81 1553.99 C 1241.09 1584.12 1253.91 1610.68 1278.02 1629.62 C 1295.81 1643.59 1317.3 1648.32 1339.52 1645.41 C 1380.69 1640 1415.59 1609.43 1439.74 1577.43 C 1473.2 1533.11 1493.43 1471.72 1485.14 1416 C 1480.24 1383.1 1464.67 1352.66 1433.69 1337.7 C 1424.24 1333.14 1413.35 1331.13 1404.3 1325.83 C 1397.56 1321.9 1391.92 1315.82 1385.53 1311.33 C 1378.68 1306.51 1370.21 1303.2 1362.36 1300.38 C 1325.68 1287.16 1288.25 1288.67 1250.45 1295.35 C 1237.15 1277.64 1221.05 1261.42 1206.08 1245.12 C 1227.6 1250.72 1263.1 1278.73 1283.93 1291.3 C 1265.5 1271.94 1241.88 1264.47 1223.25 1247.98 C 1250.07 1254.02 1279.74 1257.15 1307.17 1259.38 C 1286.81 1252.03 1266.21 1246.26 1245.11 1241.39 C 1231.24 1238.2 1217.07 1235.71 1203.4 1231.74 C 1191.27 1228.22 1179.71 1223.34 1168.07 1218.49 C 1186.26 1248.71 1218.51 1273.07 1244.59 1296.18 C 1222.75 1300.14 1200.76 1309.16 1181.54 1320.13 C 1149.25 1338.55 1119.68 1368.28 1109.77 1404.99 C 1099.68 1442.37 1110.4 1493.92 1129.4 1526.97 C 1094.54 1524.22 1033.34 1511.64 1005.18 1491.07 C 997.316 1485.32 991.681 1476.51 985.259 1469.24 C 984.731 1471.14 984.742 1470.6 984.776 1472.7 C 985.059 1490.2 999.515 1503.66 1011.65 1514.21 C 981.332 1505.91 954.847 1490.08 929.218 1472.33 C 922.685 1454.16 918.139 1435.51 910.937 1417.52 A 763.415 763.415 0 0 1 931.944 1334.85 C 939.41 1311.14 948.244 1287.8 955.131 1263.92 C 939.375 1291.75 926.414 1321.25 913.911 1350.67 C 905.401 1370.69 896.176 1391.33 890.838 1412.47 A 843.13 843.13 0 0 1 919.605 1498.07 C 922.675 1509.49 924.761 1521.12 927.608 1532.59 C 909.913 1507.31 896.982 1478.97 882.531 1451.83 C 896.536 1509.38 909.194 1517.74 891.644 1579.8 C 889.633 1562.19 885.519 1545.71 881.044 1528.6 C 881.447 1549.86 881.253 1567.51 871.885 1587.13 C 863.349 1605 849.823 1620.68 837.511 1636.08 C 821.498 1656.1 805.162 1675.82 791.428 1697.52 C 773.174 1726.36 753.662 1758.5 738.486 1789.09 C 721.339 1823.66 707.185 1859.87 689.57 1894.12 C 674.989 1901.29 661.721 1910.61 648.581 1920.09 A 2411.27 2411.27 0 0 0 612.471 1946.9 C 588.335 1964.88 575.825 1968.94 545.779 1969.39 C 530.453 1969.62 514.993 1969.47 499.708 1968.25 C 509.212 1940.86 531.738 1928.23 555.077 1913.68 C 546.682 1916.06 538.174 1918.41 529.981 1921.42 C 505.491 1930.43 494.384 1944.4 483.786 1967.57 C 472.199 1966.64 460.807 1965.2 449.53 1962.31 A 74.3727 74.3727 0 0 1 484.68 1916.35 C 488.945 1913.94 495.566 1911.75 498.884 1908.29 C 497.419 1908.06 496.055 1907.87 494.57 1907.88 C 478.542 1907.95 453.362 1924.46 444.728 1937.9 C 441.033 1943.65 438.776 1952.31 434.016 1957.06 L 431.443 1955.49 C 430.591 1954.11 429.735 1952.86 429.743 1951.16 C 429.786 1941.24 439.817 1927.42 446.562 1920.54 C 511.465 1854.31 552.84 1916.12 607.444 1867.35 C 622.901 1853.55 634.325 1835.87 646.18 1819.05 A 1193.5 1193.5 0 0 0 703.472 1730.68 A 704.867 704.867 0 0 0 733.41 1673.85 C 758.29 1621.8 771.271 1573.9 746.676 1518.76 C 729.517 1480.29 706.234 1444.48 687.892 1406.45 C 674.184 1378.02 663.113 1350.49 661.841 1318.48 C 660.034 1273.04 679.196 1223.71 702.221 1185.08 C 710.022 1171.99 726.069 1156.33 726.918 1140.82 L 725.197 1140.84 C 724.825 1143.39 724.526 1146.2 723.315 1148.5 C 719.579 1155.6 711.475 1162.55 706.118 1168.57 C 698.773 1176.83 691.621 1185.65 685.781 1195.04 C 670.598 1219.44 657.351 1247.96 650.592 1275.96 C 634.532 1342.49 661.442 1396.31 692.621 1452.66 A 1554.96 1554.96 0 0 0 729.273 1516.77 C 689.853 1495.17 641.478 1465.88 613.558 1430.14 C 606.722 1421.38 601.76 1411.96 597.013 1401.96 C 597.448 1417.14 601.403 1432.12 604.495 1446.92 C 571.225 1414.94 522.922 1339.34 517.385 1292.76 C 510.92 1310.29 508.075 1327.92 507.442 1346.53 C 490.214 1310.52 477.369 1262.93 480.889 1223 A 272.372 272.372 0 0 0 467.372 1268.68 C 457.985 1234.29 446.286 1192.05 455.144 1156.74 C 458.009 1145.31 463.441 1134.45 468.036 1123.64 C 454.512 1139.78 443.425 1158.41 428.446 1173.26 C 438.314 1142.16 450.547 1112.15 461.939 1081.61 C 449.885 1090.57 437.943 1098.87 424.596 1105.87 C 428.422 1099.06 431.94 1092.24 434.586 1084.87 C 446.732 1051.04 438.713 1019.79 424.035 988.383 C 447.78 984.934 471.759 982.483 495.586 979.611 C 511.49 992.176 528.634 998.175 548.134 1002.86 A 2515.09 2515.09 0 0 1 524.924 991.254 C 520.775 989.138 509.575 983.827 508.145 979.4 C 514.236 977.729 548.376 989.461 557.759 991.122 C 544.209 985.769 530.362 981.868 516.719 976.882 C 528.328 975.696 539.962 974.675 551.454 972.6 C 563.364 979.574 586.52 983.499 600.5 987.207 C 593.034 983.977 584.412 980.939 577.627 976.497 C 575.49 975.098 573.988 973.9 573.404 971.366 C 573.682 971.259 573.949 971.115 574.239 971.045 C 582.964 968.931 608.363 983.913 617.186 988.365 C 618.908 987.061 619.208 986.372 620.164 984.498 A 1392.55 1392.55 0 0 0 591.478 968.505 A 1572.45 1572.45 0 0 1 627.211 964.689 C 625.335 960.23 623.557 955.693 621.478 951.326 C 637.407 956.172 653.977 958.479 670.372 961.198 C 665.656 951.098 661.505 941.01 657.817 930.48 C 669.68 939.013 680.999 944.728 694.972 949.005 C 690.982 934.842 688.433 920.413 684.909 906.147 C 682.658 897.038 679.289 888.173 677.288 879.017 C 674.256 865.138 673.298 851.252 669.293 837.478 C 658.289 799.64 628.479 760.649 597.911 735.84 C 625.897 774.784 649.843 806.844 655.889 856.242 C 646.193 838.875 622.09 805.241 605.483 794.896 C 631.762 828.239 670.962 881.059 673.36 924.578 C 643.924 902.232 630.182 867.537 601.995 844.408 C 629.414 880.605 639.699 898.307 650.967 942.559 C 599.142 934.604 602.237 915.155 568.075 882.644 C 562.294 877.141 555.949 871.427 548.954 867.532 C 573.861 892.252 589.59 920.144 608.005 949.563 C 596.179 950.186 574.691 954.166 564.058 951.117 C 550.446 947.214 536.705 937.295 523.82 931.121 C 468.25 904.494 407.215 872.385 344.15 872.415 C 338.432 872.417 322.965 871.802 318.858 875.961 L 319.261 876.806 C 321.605 876.317 323.939 875.729 326.277 875.245 C 328.126 874.861 329.547 874.961 331.213 875.933 C 336.058 878.759 338.287 888.961 340.002 894.039 C 331.003 893.15 319.371 890.677 311.642 896.793 C 312.673 897.684 312.306 897.713 313.608 897.635 C 315.466 897.524 316.819 896.905 318.545 896.282 C 325.446 893.792 333.414 895.471 340.677 895.912 C 340.853 901.224 341.076 906.533 340.998 911.85 C 336.253 909.977 321.795 906.625 319.695 905.518 C 318.774 905.033 317.093 902.287 316.371 901.296 L 316.513 900.571 L 315.101 902.287 C 315.555 904.92 316.37 905.966 318.108 907.964 L 321.162 908.639 C 319.175 909.992 317.205 910.794 314.994 911.707 C 326.771 910.959 328.957 910.128 340.424 913.495 C 336.387 924.848 329.433 937.146 318.088 942.575 C 306.314 948.211 288.971 942.501 277.469 938.159 C 262.052 932.34 247.453 926.029 240.326 910.168 C 237.35 903.544 235.21 895.953 233.184 888.964 C 244.625 883.653 274.457 869.425 280.2 859.369 L 280.08 857.338 C 271.801 850.412 229.281 861.497 221.364 857.08 C 219.947 856.29 219.427 853.667 219.359 852.23 C 218.777 839.996 241.316 816.016 249.444 807.769 C 267.068 789.888 286.85 773.375 306.638 757.949 C 383.168 698.291 450.601 677.159 546.237 665.301 C 543.109 673.45 539.998 681.501 537.714 689.94 C 525.322 689.674 512.837 688.3 500.453 688.924 C 455.644 691.181 408.288 708.305 375.417 739.404 C 371.336 743.265 367.393 747.289 363.445 751.286 C 427.016 711.245 465.319 694.741 542.423 696.027 z"/>
<path transform="translate(0,0)" fill="rgb(39,57,82)" d="M 617.186 988.365 C 618.908 987.061 619.208 986.372 620.164 984.498 C 634.232 991.743 647.581 999.548 660.219 1009.14 C 645.638 1002.85 631.261 995.713 617.186 988.365 z"/>
<path transform="translate(0,0)" fill="rgb(39,57,82)" d="M 1588.94 1278.62 C 1598.41 1284.3 1608.22 1318.08 1612.42 1329.38 C 1612.19 1329.21 1611.94 1329.06 1611.73 1328.86 C 1605.73 1323.36 1589.07 1287.02 1588.94 1278.62 z"/>
<path transform="translate(0,0)" fill="rgb(39,57,82)" d="M 835.931 1111.05 C 861.202 1128.06 879.696 1150.05 897.279 1174.51 C 882.029 1162.47 868.47 1146.78 855.289 1132.55 C 849.189 1125.96 843.42 1118.98 836.27 1113.51 C 835.757 1113.12 835.252 1112.71 834.743 1112.31 L 835.931 1111.05 z"/>
<path transform="translate(0,0)" fill="rgb(39,57,82)" d="M 1102.78 1211.68 C 1114.41 1220.55 1125.35 1229.5 1135.5 1240.09 C 1144.9 1249.88 1153.29 1260.63 1163.1 1270.03 L 1162.58 1270.66 L 1162.05 1270.46 L 1163.15 1269.9 L 1162.97 1269.41 C 1161.87 1269.26 1160.69 1269.42 1159.68 1268.96 C 1150.53 1264.85 1110.81 1222.93 1100.82 1213.35 L 1102.78 1211.68 z"/>
<path transform="translate(0,0)" fill="rgb(39,57,82)" d="M 1639.63 1395.57 C 1650.37 1404.15 1666.48 1457.22 1671.8 1472.51 C 1661.02 1464.71 1642.6 1410.35 1639.63 1395.57 z"/>
<path transform="translate(0,0)" fill="rgb(39,57,82)" d="M 1115.08 1022.96 C 1133.5 1032.86 1169.83 1063.95 1183.48 1079.9 C 1158.64 1063.04 1134.79 1040.03 1110.12 1025.38 C 1112.36 1025.2 1111.51 1025.17 1113.66 1025.37 C 1114.15 1025.42 1114.63 1025.48 1115.12 1025.53 L 1115.08 1022.96 z"/>
<path transform="translate(0,0)" fill="rgb(39,57,82)" d="M 1170.99 1146.92 C 1197.97 1164.23 1220.91 1185.51 1243.8 1207.83 C 1217.26 1194.64 1194.15 1166.32 1168.69 1149.35 L 1170.99 1146.92 z"/>
<path transform="translate(0,0)" fill="rgb(39,57,82)" d="M 1028.49 1081.47 A 313.714 313.714 0 0 1 1069.51 1112.99 C 1081.53 1123.61 1095.29 1135.8 1105.03 1148.5 C 1092.83 1139.21 1077.36 1129.48 1067.6 1117.75 C 1053.77 1106.5 1041.29 1093.88 1027 1083.12 L 1028.49 1081.47 z"/>
<path transform="translate(0,0)" fill="rgb(39,57,82)" d="M 961.966 1150.36 C 989.678 1172.79 1012.33 1201.36 1031.04 1231.53 C 1024.23 1225.43 1018.45 1218.06 1012.5 1211.14 C 995.722 1191.65 979.156 1169.16 959.863 1152.18 L 961.966 1150.36 z"/>
<path transform="translate(0,0)" fill="rgb(39,57,82)" d="M 1533.37 1186.21 C 1559.62 1206 1572.61 1236.78 1581.92 1267.57 C 1569.03 1244.65 1550.98 1205.17 1531.01 1189.4 L 1533.37 1186.21 z"/>
<path transform="translate(0,0)" fill="rgb(39,57,82)" d="M 1290.98 1183.61 C 1291.3 1182.42 1291.84 1181.75 1292.54 1180.75 C 1292.78 1180.95 1293.02 1181.16 1293.26 1181.37 C 1303.53 1189.97 1315.8 1196.29 1326.6 1204.21 C 1334.52 1210.01 1377.72 1246.85 1380.18 1255.88 L 1378.98 1257.51 L 1380.06 1257.84 L 1380.23 1257.73 C 1352.64 1230.8 1320 1208.94 1290.98 1183.61 z"/>
<path transform="translate(0,0)" fill="rgb(39,57,82)" d="M 1549.61 1537.85 C 1549.51 1541.02 1548.47 1544.2 1547.47 1547.2 C 1533.78 1588.15 1487.77 1615.89 1450.97 1634.18 C 1451.18 1632.09 1454.92 1630.17 1456.69 1629 C 1485.92 1609.76 1515.54 1589.41 1536.03 1560.45 C 1541.15 1553.2 1545.16 1545.5 1549.61 1537.85 z"/>
<path transform="translate(0,0)" fill="rgb(39,57,82)" d="M 1557.27 1626.07 L 1558.35 1626.18 C 1556.43 1629.67 1545.84 1634.88 1541.99 1637.45 C 1527.87 1646.87 1512.7 1656.9 1501.49 1669.78 C 1486.79 1686.66 1483.45 1708.01 1486.89 1729.67 C 1487.86 1735.79 1490.23 1741.75 1490.68 1747.92 L 1489.39 1746.58 A 76.468 76.468 0 0 1 1480.95 1728.15 C 1475.99 1712.15 1476.11 1693.38 1484.38 1678.49 C 1498.04 1653.92 1531.09 1634.01 1557.27 1626.07 z"/>
<path transform="translate(0,0)" fill="rgb(39,57,82)" d="M 833.64 1613.96 C 833.742 1625.22 773.134 1710.99 762.156 1727.64 C 751.769 1743.38 742.201 1759.8 731.247 1775.15 C 732.161 1748.35 812.994 1641.5 833.64 1613.96 z"/>
<path transform="translate(0,0)" fill="rgb(39,57,82)" d="M 1263.91 1347.43 L 1267.83 1347.36 C 1264.02 1350.15 1253.29 1351.69 1248.34 1353.21 C 1222.53 1361.11 1196.56 1377.31 1182.56 1401 C 1158.87 1441.09 1174.01 1508.28 1185.15 1551.33 C 1175.95 1538.41 1168.29 1501.51 1165.83 1484.78 C 1161.05 1452.38 1161.84 1416.74 1182.41 1389.59 C 1202.36 1363.23 1232.03 1351.62 1263.91 1347.43 z"/>
<path transform="translate(0,0)" fill="rgb(39,57,82)" d="M 769.616 1070.82 C 784.087 1076.07 797.77 1083.07 812.567 1087.46 C 836.268 1094.51 860.965 1097.12 885.135 1102.03 L 884.128 1103.75 C 884.758 1103.74 885.4 1103.84 886.018 1103.72 C 886.553 1103.62 887.023 1103.3 887.526 1103.09 L 887.561 1103.69 C 873.35 1108.97 838.323 1104.66 823.155 1101.39 L 835.931 1111.05 L 834.743 1112.31 C 826.018 1106.07 818.38 1102.22 808.12 1098.97 C 820.128 1113.13 831.362 1127.86 844.379 1141.13 C 852.698 1149.62 861.963 1157.3 870.92 1165.1 L 870.193 1164.96 L 872.182 1166.52 L 872.619 1166.41 L 871.285 1164.84 L 870.037 1166.08 C 830.792 1142.27 794.435 1109.77 769.616 1070.82 z"/>
<path transform="translate(0,0)" fill="rgb(39,57,82)" d="M 1112.05 1110.67 C 1124.58 1112.74 1137.12 1117.69 1149.19 1121.64 A 2526.26 2526.26 0 0 1 1229.99 1149.92 C 1204.86 1148.7 1180.49 1141.88 1156.11 1136.11 C 1160.89 1139.95 1165.98 1143.39 1170.99 1146.92 L 1168.69 1149.35 C 1159.19 1142.53 1149.8 1135.72 1139.14 1130.8 C 1159.84 1163.22 1189.83 1188.88 1220.07 1211.96 C 1174.7 1191.86 1134.89 1154.96 1112.05 1110.67 z"/>
<path transform="translate(0,0)" fill="rgb(39,57,82)" d="M 965.665 1043.46 C 990.904 1052.88 1016.94 1060.52 1042.83 1067.93 C 1061.19 1073.19 1079.58 1077.94 1097.39 1084.89 C 1069.21 1084.64 1043.3 1080.02 1016.09 1073.27 A 721.399 721.399 0 0 1 1028.49 1081.47 L 1027 1083.12 C 1020.11 1078.67 1013.13 1074.77 1005.84 1071.03 A 568.819 568.819 0 0 0 1082.7 1147.01 C 1052.77 1131.5 981.021 1072.9 965.665 1043.46 z"/>
<path transform="translate(0,0)" fill="rgb(39,57,82)" d="M 1246.52 1154.96 C 1265.41 1158.55 1351.76 1183.2 1365.37 1193.24 C 1340.93 1191.72 1316.41 1185.99 1292.54 1180.75 C 1291.84 1181.75 1291.3 1182.42 1290.98 1183.61 C 1285.28 1180.12 1279.46 1176.97 1273.54 1173.87 C 1288.88 1193.07 1300.96 1213.22 1318.47 1230.92 C 1330.57 1243.14 1343.53 1254 1357.11 1264.51 C 1361.39 1267.81 1370.42 1272.56 1372.79 1276.94 L 1371.49 1276.99 C 1358.48 1268.33 1344.59 1261.02 1331.9 1251.86 C 1300.63 1229.28 1264.91 1189.28 1246.52 1154.96 z"/>
<path transform="translate(0,0)" fill="rgb(39,57,82)" d="M 896.127 1112.48 C 918.219 1117.95 939.927 1124.82 962.059 1130.21 C 984.308 1135.63 1007.18 1139.54 1029 1146.54 C 1001.48 1148.68 976.428 1145.39 949.471 1140.48 L 961.966 1150.36 L 959.863 1152.18 C 951.468 1144.43 942.27 1139.86 931.638 1135.99 C 954.649 1167.76 985.461 1193.05 1009.46 1223.87 C 969.047 1190.35 926.85 1155.49 896.127 1112.48 z"/>
<path transform="translate(0,0)" fill="rgb(39,57,82)" d="M 1027.29 1159.72 C 1052.7 1171.03 1078.14 1181.41 1104.48 1190.41 C 1124.35 1197.2 1144.52 1202.59 1164.2 1210.04 C 1138.19 1210.7 1112.92 1204.31 1088.02 1197.44 C 1092.64 1202.54 1097.67 1207.08 1102.78 1211.68 L 1100.82 1213.35 C 1087.29 1201.32 1086.83 1197.24 1067.77 1191.98 C 1076.63 1202.51 1084.9 1213.54 1093.81 1224.02 C 1108.99 1241.87 1125.03 1259.14 1140.57 1276.69 C 1111.61 1256.47 1042.87 1190.22 1027.29 1159.72 z"/>
<path transform="translate(0,0)" fill="rgb(39,57,82)" d="M 821.176 1003.81 C 836.196 1007.18 850.698 1013.42 865.888 1016.86 C 895.318 1023.51 929.566 1027.64 957.735 1036.92 C 930.638 1038.99 904.966 1036.32 878.432 1030.98 C 911.931 1047.17 939.726 1068.53 968.167 1092.18 C 948.92 1082.63 921.292 1061.4 904.053 1048.02 C 890.934 1038.26 876.316 1032 861.391 1025.51 C 882.359 1048.22 905.464 1067.13 931.051 1084.37 C 939.305 1089.94 959.648 1102.09 965.636 1107.44 L 964.043 1107.6 C 925.094 1088.97 887.727 1066.07 855.549 1037.21 C 844.027 1026.88 834.229 1014.56 822.322 1004.75 L 821.176 1003.81 z"/>
<path transform="translate(0,0)" fill="rgb(39,57,82)" d="M 716.952 925.652 C 725.784 932.551 740.734 957.613 750.055 968.19 C 768.455 989.071 789.687 1007.25 810.542 1025.62 C 788.159 1015.66 770.596 997.772 751.584 982.887 C 752.088 989.043 824.617 1052.54 834.725 1064.98 C 834.991 1065.31 835.249 1065.64 835.51 1065.97 C 823.175 1056.65 811.365 1046.63 799.457 1036.77 C 776.691 1017.66 752.868 996.89 734.489 973.511 C 744.511 1023.09 774.168 1036.62 808.572 1067.98 C 798.49 1061.78 788.303 1055.68 778.495 1049.06 C 726.326 1013.82 727.934 982.854 716.952 925.652 z"/>
<path transform="translate(0,0)" fill="rgb(39,57,82)" d="M 725.197 1140.84 C 720.657 1135.59 697.375 1054.59 694.862 1043.9 C 689.771 1022.24 686.805 1000.1 681.753 978.386 C 692.941 994.366 701.957 1011.3 715.229 1025.82 C 729.978 1041.96 748.21 1055.22 762.096 1071.98 C 754.789 1070.23 746.76 1068.36 740.06 1064.92 C 735.202 1062.42 730.09 1056.63 724.985 1055.47 L 726.992 1059.53 C 741.815 1082.65 751.705 1110.17 754.027 1137.55 C 744.203 1114.14 736.137 1083.06 723.887 1061.97 C 717.453 1052.14 709.191 1043.67 702.298 1034.16 C 710.754 1069.28 721.915 1105.08 726.918 1140.82 L 725.197 1140.84 z"/>
<path transform="translate(0,0)" fill="rgb(39,57,82)" d="M 1614.5 1430.45 C 1633.83 1450.09 1668.04 1520.47 1678.76 1546.27 C 1665.32 1533.44 1655.44 1517.46 1645.3 1502.03 C 1641.4 1496.1 1637.73 1489.7 1632.99 1484.42 C 1635.45 1501.81 1648.64 1561.61 1644.5 1574.09 L 1642.03 1567.48 C 1629.74 1540.25 1641.48 1504.65 1625.47 1470.11 C 1622.59 1503.8 1617.52 1542.18 1601.72 1572.41 C 1602.42 1550.26 1606.2 1527.87 1608.78 1505.86 C 1611.74 1480.69 1613.53 1455.77 1614.5 1430.45 z"/>
<path transform="translate(0,0)" fill="rgb(39,57,82)" d="M 1516.5 1295.33 C 1526.38 1301.44 1535.27 1310.33 1543.8 1318.2 C 1573.48 1345.57 1599.9 1375.95 1628.74 1404.12 C 1598.72 1390.85 1577.09 1366.13 1551.53 1346.46 L 1552.25 1348.31 C 1555.13 1355.49 1559.95 1362.14 1563.4 1369.1 C 1576.74 1395.97 1583.07 1412.76 1589 1442.48 C 1580.06 1425.46 1576.23 1407.61 1569.7 1389.82 C 1564.41 1375.4 1557.03 1361.62 1550.06 1347.96 C 1547.81 1342.47 1543.69 1338.06 1539.97 1333.53 C 1551.44 1370.54 1556.26 1409.53 1560.93 1447.88 C 1546.08 1417.32 1541.38 1383.29 1533.68 1350.55 C 1529.22 1331.61 1523.3 1313.54 1516.5 1295.33 z"/>
<path transform="translate(0,0)" fill="rgb(39,57,82)" d="M 1384.62 1205.66 C 1397.04 1210.18 1409.06 1218.25 1420.66 1224.71 C 1437.5 1234.1 1454.58 1243.24 1471.15 1253.1 C 1484.49 1261.04 1497.39 1269.83 1510.56 1278.06 C 1482.78 1271.79 1456.01 1259.19 1430.49 1246.84 C 1437.87 1254.79 1445.78 1262.21 1453 1270.32 C 1472.27 1291.96 1486.91 1314.97 1500.45 1340.47 C 1495.01 1334.15 1490.92 1326.65 1486.25 1319.75 C 1481.73 1313.07 1476.58 1306.76 1471.55 1300.46 C 1462.2 1288.52 1453.1 1275.85 1442.86 1264.68 C 1432.9 1253.83 1421.58 1243.94 1410.83 1233.87 C 1424.02 1255.7 1434.67 1278.85 1448.65 1300.21 C 1459.25 1316.42 1472.62 1330.69 1483.23 1346.9 L 1484.22 1348.41 C 1471.69 1337.11 1458.93 1325.94 1447.95 1313.08 C 1426.26 1287.67 1397.95 1236.87 1384.62 1205.66 z"/>
<path transform="translate(0,0)" fill="rgb(39,57,82)" d="M 437.587 743.253 C 466.393 741.98 489.329 754.53 514.625 766.475 C 530.959 762.625 546.156 761.974 562.862 763.349 C 529.528 771.883 516.821 772.883 496.49 803.086 C 491.225 810.908 486.276 819.087 479.887 826.052 L 478.861 827.158 C 457.975 847.372 436.493 851.639 408.426 847.517 C 396.762 845.803 386.444 844.116 374.79 846.79 C 379.554 819.266 375.506 792.154 392.826 767.884 C 403.734 752.599 419.745 746.206 437.587 743.253 z"/>
<path transform="translate(0,0)" fill="rgb(253,253,253)" d="M 437.726 757.358 A 76.0157 76.0157 0 0 1 440.535 757.244 C 458.293 756.898 482.274 766.346 495.01 778.673 L 493.582 781.5 C 482.071 804.256 472.251 825.154 446.314 833.669 C 426.699 838.629 408.36 834.692 388.753 831.637 C 389.925 813.177 391.729 790.481 403.08 775.13 C 411.829 763.297 423.781 759.264 437.726 757.358 z"/>
<path transform="translate(0,0)" fill="rgb(39,57,82)" d="M 430.597 771.135 C 435.48 770.943 440.708 771.532 445.197 773.541 C 451.608 776.411 456.589 781.567 458.918 788.227 A 25.7915 25.7915 0 0 1 457.638 808.286 C 453.382 816.598 446.149 820.15 437.612 822.727 C 432.044 823.078 426.95 822.719 421.833 820.258 A 23.4919 23.4919 0 0 1 409.716 806.666 C 407.264 799.637 408.053 791.232 411.654 784.732 C 415.971 776.941 422.283 773.474 430.597 771.135 z"/>
<path transform="translate(0,0)" fill="rgb(253,253,253)" d="M 428.009 778.135 C 432.631 777.668 436.598 777.609 441.086 778.97 C 445.818 780.405 449.598 782.552 451.819 787.149 C 454.892 793.51 452.683 798.052 450.501 804.167 C 449.289 800.365 447.763 796.695 446.267 792.998 C 437.291 782.312 426.564 795.113 416.694 790.678 L 416.615 788.765 C 419.659 783.257 422.42 781.068 428.009 778.135 z"/>
<path transform="translate(0,0)" fill="rgb(39,57,82)" d="M 770.834 1154.41 C 790.166 1152.6 807.951 1158.4 823.357 1170.02 C 855.859 1194.53 872.603 1232.98 877.802 1272.51 C 883.637 1316.86 876.606 1364.21 848.605 1400.36 C 834.359 1418.76 814.398 1430.21 791.337 1433.24 C 770.319 1435.13 749.042 1427.94 732.826 1414.61 C 700.189 1387.76 685.82 1344.26 681.886 1303.5 C 677.98 1263.03 686.612 1217.1 713.329 1185.3 C 728.75 1166.94 746.933 1156.61 770.834 1154.41 z"/>
<path transform="translate(0,0)" fill="rgb(253,253,253)" d="M 770.723 1162.36 C 786.559 1159.6 804.265 1166.59 817.019 1175.57 C 846.851 1196.57 862.766 1232.84 868.564 1267.92 C 875.338 1308.9 869.847 1357.75 844.745 1392.06 C 830.646 1411.34 813.543 1421.13 790.231 1424.87 C 771.833 1425.54 755.849 1421.62 740.884 1410.61 C 712.01 1389.37 695.821 1348.9 690.785 1314.51 C 684.754 1273.32 691.55 1227.17 717.257 1193.37 C 730.983 1175.32 748.342 1165.38 770.723 1162.36 z"/>
<path transform="translate(0,0)" fill="rgb(39,57,82)" d="M 774.243 1195.26 A 46.5913 46.5913 0 0 1 802.885 1202.7 C 822.5 1215.38 833.279 1239.95 838.321 1261.89 C 846.275 1296.51 843.166 1336.94 823.611 1367.4 C 815.642 1379.81 805.581 1387.57 791.09 1390.83 C 778.433 1392.8 767.346 1391.21 756.743 1383.6 C 735.831 1368.59 726.206 1338.92 722.292 1314.65 C 717.18 1282.94 719.603 1243.44 739.144 1216.62 C 748.097 1204.33 759.289 1197.62 774.243 1195.26 z"/>
<path transform="translate(0,0)" fill="rgb(253,253,253)" d="M 771.933 1203.1 C 779.094 1202.62 785.341 1203.03 792.029 1205.87 C 808.28 1212.78 818.437 1228.89 824.571 1244.74 C 837.708 1278.69 837.34 1319.51 822.246 1352.77 C 815.355 1367.96 807.012 1377.48 791.112 1383.38 C 782.447 1384.98 774.699 1384.62 766.781 1380.49 C 749.243 1371.35 739.658 1348.98 734.341 1331.03 C 724.81 1298.85 724.718 1257.39 741.477 1227.43 C 748.6 1214.7 757.951 1207.1 771.933 1203.1 z"/>
<path transform="translate(0,0)" fill="rgb(39,57,82)" d="M 776.392 1244.82 C 777.915 1244.89 779.477 1244.91 780.978 1245.23 C 786.398 1246.36 790.965 1250.94 793.871 1255.41 C 804.144 1271.2 804.409 1298.3 800.538 1316.12 C 798.139 1327.17 794.1 1337.09 784.27 1343.39 C 782.367 1343.52 780.375 1343.63 778.492 1343.22 C 773.133 1342.07 768.923 1337.58 766.259 1333.04 C 755.884 1315.33 755.954 1285.4 761.439 1266.15 C 764.174 1256.55 767.585 1249.79 776.392 1244.82 z"/>
<path transform="translate(0,0)" fill="rgb(47,181,198)" d="M 774.679 1248.91 C 779.226 1249.01 782.902 1249.74 786.397 1252.81 C 796.232 1261.44 798.346 1277.13 798.922 1289.54 C 799.71 1306.51 796.924 1324.69 785.065 1337.62 C 783.878 1337.89 782.734 1338.2 781.507 1338.26 C 778.389 1338.43 775.052 1336.36 772.826 1334.32 C 764.815 1326.99 762.57 1310.25 761.933 1299.83 C 760.927 1283.36 763.338 1261.66 774.679 1248.91 z"/>
</svg>