<svg version="1.1" xmlns="http://www.w3.org/2000/svg" style="display: block;" viewBox="0 0 2048 2048" width="1024" height="1024">
<defs>
	<linearGradient id="Gradient1" gradientUnits="userSpaceOnUse" x1="585.777" y1="717.266" x2="512.665" y2="738.174">
		<stop class="stop0" offset="0" stop-opacity="1" stop-color="rgb(180,210,215)"/>
		<stop class="stop1" offset="1" stop-opacity="1" stop-color="rgb(239,250,250)"/>
	</linearGradient>
	<linearGradient id="Gradient2" gradientUnits="userSpaceOnUse" x1="605.787" y1="1036.27" x2="300.781" y2="869.049">
		<stop class="stop0" offset="0" stop-opacity="1" stop-color="rgb(173,208,215)"/>
		<stop class="stop1" offset="1" stop-opacity="1" stop-color="rgb(219,236,237)"/>
	</linearGradient>
	<linearGradient id="Gradient3" gradientUnits="userSpaceOnUse" x1="1484.56" y1="1661.3" x2="1112.96" y2="1578.93">
		<stop class="stop0" offset="0" stop-opacity="1" stop-color="rgb(192,222,225)"/>
		<stop class="stop1" offset="1" stop-opacity="1" stop-color="rgb(242,246,248)"/>
	</linearGradient>
</defs>
<path transform="translate(0,0)" fill="none" d="M 0 0 L 2048 0 L 2048 2048 L 0 2048 L 0 0 z"/>
<path transform="translate(0,0)" fill="rgb(57,64,72)" d="M 0 0 L 2048 0 L 2048 2048 L 0 2048 L 0 0 z"/>
<path transform="translate(0,0)" fill="rgb(50,58,67)" d="M 904.052 857.467 C 904.194 855.584 904.364 854.126 905.013 852.328 C 905.713 850.39 905.238 851.107 907.32 850.101 C 909.86 852.011 909.996 853.318 911.108 856.237 L 904.052 857.467 z"/>
<path transform="translate(0,0)" fill="rgb(0,0,0)" d="M 412.007 650.801 C 333.529 671.462 299.472 769.347 224.826 805.88 C 218.647 808.905 212.502 813.504 205.682 814.842 C 190.977 817.727 170.512 806.117 158.628 798.364 C 96.94 758.123 67.7826 667.497 53.115 599.023 C 27.8019 480.851 41.886 329.624 109.02 226.61 C 151.914 160.791 212.672 122.24 284.555 94.3263 C 309.614 84.5952 334.327 76.169 360.678 70.6834 C 388.647 64.8608 417.049 60.1412 445.581 58.2837 C 528.995 52.8534 634.913 67.1014 705.98 114.062 C 733.539 132.273 766.196 159.709 772.674 194.118 C 780.868 237.643 718.293 298.716 695.232 332.399 A 960.424 960.424 0 0 0 734.217 421.158 C 740.675 434.322 747.526 449.858 756.659 461.353 C 759.922 465.46 762.874 467.933 767.578 470.295 C 779.929 476.496 793.687 481.234 806.62 486.141 C 939.401 536.525 1052.63 499.31 1161.32 416.708 C 1228.22 365.861 1288.44 306.966 1369.97 279.952 C 1417.28 264.278 1464.19 261.84 1513.29 268.339 C 1537.06 271.486 1560.79 276.63 1582.35 287.5 L 1574.21 286.104 L 1572.32 287.317 L 1573.48 287.697 C 1576.61 288.697 1579.49 289.425 1582.73 289.992 C 1593.92 291.954 1605.17 296.656 1615.71 300.892 C 1669.79 322.637 1713.23 360.627 1746.16 408.198 C 1770.73 443.677 1789.91 486.472 1801.95 527.781 C 1808.32 549.666 1812.69 572.458 1817.06 594.833 C 1818.86 604.07 1824.14 623.986 1822.31 632.689 C 1822.07 633.851 1821.94 633.952 1821.44 634.846 C 1813.26 632.144 1773.12 594.319 1763.32 586.363 C 1750.45 575.909 1737.31 566.101 1723.81 556.477 C 1715.75 550.732 1703.38 544.056 1698.83 535.076 C 1692.56 522.726 1686.71 485.732 1682.72 469.972 C 1665.09 400.361 1634.41 339.979 1570.46 302.487 C 1560.74 296.794 1550.8 290.282 1540.18 286.45 C 1500.4 272.097 1414.06 296.79 1376.44 315.311 C 1310.81 347.627 1267.54 388.163 1208.91 428.57 C 1182.82 446.545 1155.72 462.184 1127.47 476.501 C 1068.3 506.488 1020.37 521.642 954.058 526.717 C 908.711 530.188 863.645 526.095 820.419 511.417 A 970.704 970.704 0 0 1 780.233 496.348 C 838.312 558.861 900.1 618.347 991.089 621.951 C 1075.12 625.28 1147.26 566.301 1215.67 525.258 A 451.884 451.884 0 0 1 1278.59 493.222 C 1307.22 481.257 1336.59 475.64 1367.51 474.346 C 1447.89 470.981 1517.92 498.126 1585.48 539.294 C 1639.24 572.052 1685.83 610.451 1728.81 656.608 C 1764.05 694.456 1791.15 738.59 1816.97 783.085 C 1827.82 801.794 1839.81 820.04 1850.05 839.072 C 1871.52 878.947 1890.44 920.497 1910.86 960.951 C 1924.88 988.735 1937.59 1017.06 1953.38 1043.93 C 1964.46 1062.79 1977.03 1080.13 1990.32 1097.47 C 1936.91 1095.69 1863.67 1050.16 1827.28 1011.54 C 1822.47 1006.44 1815.66 999.552 1812.9 993.05 C 1807.45 980.186 1803.98 957.769 1800.59 943.467 C 1792.04 907.428 1783.72 871.103 1772.07 835.909 C 1737.55 731.555 1671.24 636.352 1588.62 564.222 C 1573.79 551.279 1556.72 535.519 1539.32 526.161 C 1513.83 512.454 1454.68 503.201 1425.51 502.229 A 323.972 323.972 0 0 0 1304.49 522.471 C 1279.78 531.545 1256.47 543.769 1233.12 555.823 C 1136.84 605.532 1036.17 669.264 923.432 634.046 C 877.872 619.812 841.208 595.158 808.742 560.685 C 783.688 534.083 761.361 504.113 742.057 473.117 C 703.898 452.232 673.71 424.03 643.536 393.131 C 625.161 405.413 602.991 414.477 587.095 429.939 C 565.829 450.625 566.015 493.298 555.011 520.238 C 549.291 534.243 540.375 546.287 530.586 557.683 C 549.152 567.758 565.936 587.383 578.955 603.867 C 595.018 569.602 621.796 534.496 658.846 521.347 C 678.376 514.416 698.302 516.587 716.729 525.669 C 744.835 539.52 763.159 561.289 773.112 591.072 C 774.963 596.612 776.121 602.298 777.247 608.019 C 787.943 611.987 816.579 619.209 821.03 628.783 C 823.28 633.621 822.268 639.58 820.366 644.35 C 815.552 656.427 801.049 663.51 793.833 674.32 C 786.379 685.485 784.524 700.309 775.79 710.495 C 771.798 715.149 766.188 718.171 760.552 720.379 C 754.968 722.567 737.225 724.891 734.337 727.531 C 733.58 730.008 733.677 731.174 734.32 733.673 C 740.139 735.942 747.156 735.976 753.364 736.9 C 763.945 738.475 775.494 741.05 785.37 745.283 C 808.125 755.037 801.881 763.432 812.911 773.517 C 824.433 784.051 845.337 787.137 851.257 792.042 C 854.256 794.526 856.142 798.682 857.85 802.114 C 863.85 803.182 870.328 803.968 876.017 806.22 C 884.233 809.472 891.45 815.197 899.918 817.733 C 914.795 822.19 961.76 825.701 977.44 823.495 C 984.45 822.509 990.837 820.49 996.932 816.841 C 1009.78 791.777 1017.45 762.951 1047.55 753.378 C 1051.7 752.058 1055.77 750.791 1059.79 752.837 C 1060.5 756.292 1059.58 758.083 1057.64 760.99 C 1049.84 772.745 1042.75 779.907 1040.14 794.503 C 1048.09 786.773 1063.73 769.655 1075.6 769.619 C 1077.09 769.614 1078.28 770.104 1079.61 770.698 C 1080.34 772.124 1080.79 772.223 1080.26 773.914 C 1078.76 778.659 1072.67 783.143 1069.31 786.824 C 1068.76 790.081 1068.31 793.74 1067.06 796.808 C 1062.93 806.938 1047.32 823.568 1038.42 830.125 C 1024.23 840.58 958.014 846.122 938.966 846.092 C 923.57 846.068 907.988 843.749 892.672 844.229 C 876.679 844.73 861.464 849.467 845.346 846.487 C 835.288 844.627 827.744 839.747 819.788 833.608 C 826.992 846.943 828.402 856.992 844.914 862.177 C 865.217 868.552 883.995 860.224 904.052 857.467 L 911.108 856.237 L 919.619 855.555 C 919.813 854.92 919.968 854.272 920.2 853.65 C 920.34 853.274 920.553 852.931 920.729 852.571 C 921.251 852.955 921.762 853.353 922.294 853.724 C 926.827 856.879 937.993 855.397 943.51 855.665 C 957.024 856.323 970.47 859.985 983.449 863.625 C 1074.17 889.068 1142.18 974.346 1180.77 1056.47 C 1235.51 1026.62 1286.51 990.502 1342.41 962.781 C 1422.56 923.037 1531.6 900.622 1618.98 926.606 C 1644.53 934.201 1671.57 945.633 1694.08 959.832 C 1746.77 993.058 1795.9 1051.21 1825.29 1105.98 C 1860.26 1171.16 1882.98 1241.94 1887.35 1315.99 C 1888.48 1335.18 1889.18 1355.11 1884.59 1373.9 L 1883.66 1372.51 C 1871.12 1353.41 1862.21 1332.15 1849.36 1313.08 A 1266.3 1266.3 0 0 0 1813.28 1263.05 C 1805.2 1252.36 1794.71 1241.06 1788.82 1229.02 C 1783.52 1218.19 1782.78 1202.72 1780.72 1190.92 C 1778.63 1178.95 1776.11 1166.87 1772.66 1155.22 C 1751.11 1082.32 1708.63 1006.24 1646.95 960.172 C 1634.73 951.046 1619.76 940.781 1604.63 937.367 C 1592.5 934.632 1578.08 936.928 1565.79 938.194 C 1479.93 947.04 1401.17 988.47 1326.19 1028.35 A 13081.9 13081.9 0 0 1 1199.51 1095.93 C 1203.25 1102.34 1207.06 1108.7 1210.32 1115.36 C 1278.84 1110.17 1347.86 1106.75 1416.5 1112.14 C 1527.12 1120.84 1649.33 1157.35 1734.69 1230.78 C 1816.7 1301.33 1882.91 1399.47 1891.24 1509.86 C 1895.91 1571.83 1875.59 1636.14 1834.68 1683.05 C 1762.55 1765.74 1654.06 1783.01 1573.62 1851.4 C 1541.86 1878.41 1506.15 1917.77 1496.66 1959.37 C 1496.17 1961.49 1496.78 1960.72 1494.96 1961.72 C 1492.36 1959.21 1492.58 1954.94 1492.54 1951.54 C 1491.9 1891.97 1526.77 1799.23 1568.74 1756.68 C 1576.05 1749.27 1584.26 1742.66 1593.72 1738.21 C 1604.69 1733.05 1618.43 1730.51 1630.13 1727.18 C 1666.83 1716.75 1704.45 1705.06 1735.44 1681.98 C 1742.43 1676.78 1751.55 1670.72 1755.48 1662.67 C 1765.46 1642.25 1767.08 1601.66 1767.07 1578.59 C 1767 1478.07 1724.32 1395.1 1654.04 1325.04 C 1561.81 1233.1 1428.77 1180.92 1301.48 1163.54 C 1280.83 1160.72 1259.32 1157.17 1238.47 1156.85 C 1282.73 1207.28 1338.4 1242.54 1404.74 1255.66 C 1425.79 1259.82 1450.08 1259.94 1470.1 1267.37 C 1488.08 1274.05 1497.51 1294.55 1514.7 1303.56 C 1533.64 1313.49 1554.25 1319.04 1573.92 1327.16 C 1630.29 1350.44 1647.13 1392.17 1654.07 1449.98 C 1635.07 1434.46 1620 1416.57 1598.43 1403.95 C 1572.05 1388.53 1551.68 1388.92 1525.26 1378.95 C 1510.44 1373.35 1497.37 1363.98 1483.41 1356.62 C 1467.92 1348.44 1451.51 1341.62 1436.4 1332.8 C 1404.86 1314.37 1380.91 1285.6 1348.16 1269.21 C 1326.53 1258.37 1303.4 1251.8 1281.12 1242.62 C 1239.36 1225.42 1201.47 1201.89 1165.46 1174.73 C 1157.66 1168.85 1149.03 1163.18 1142.09 1156.31 C 1039.23 1162.46 871.787 1170.32 777.769 1136.03 C 748.513 1125.36 721.594 1107.98 698.314 1087.38 C 666.36 1059.11 643.586 1023.05 626.309 984.415 C 612.908 999.573 596.929 1017.33 588.028 1035.53 C 611.827 1101.54 638.01 1143.95 703.386 1174.75 C 774.702 1208.36 855.225 1213.04 931.996 1225.05 C 976.49 1232.01 1020.07 1241.18 1064.02 1250.91 C 1094.64 1257.69 1125.5 1263.65 1155.14 1274.16 C 1286.85 1320.82 1408.23 1423.85 1456.69 1557.33 C 1482.98 1629.75 1493.25 1713.68 1459.22 1785.14 C 1433.32 1839.53 1385.07 1878.99 1328.6 1898.72 C 1290.63 1911.98 1253.55 1916.51 1213.74 1919.89 C 1198.29 1921.2 1182.58 1921.99 1167.23 1924.18 C 1119.28 1931.03 1070.48 1950.49 1033.88 1982.66 C 1023.3 1991.96 1013.5 2002.52 1006.04 2014.53 C 1002.71 2019.89 999.789 2028.88 995.474 2033.06 C 993.897 2031.46 994.086 2030.89 994.063 2028.71 C 993.994 2022.13 995.728 2015.18 997.089 2008.76 C 1004.21 1975.15 1020.84 1942.7 1045.77 1918.76 C 1111.77 1855.38 1198.06 1871.56 1279.4 1856.7 C 1316.76 1849.87 1360.56 1829.08 1384.56 1798.79 C 1414.06 1761.56 1424.49 1703.66 1425.65 1656.93 C 1427.91 1565.78 1386.39 1470.4 1323.74 1405.22 A 520.133 520.133 0 0 0 1051.35 1252.72 C 1038.13 1250.05 1024.41 1249.41 1011.02 1247.88 C 976.684 1243.94 942.996 1240.76 908.458 1239.05 C 878.636 1237.58 848.633 1237.63 818.893 1235.01 C 739.942 1228.05 653.663 1203.76 601.435 1140.18 C 585.805 1121.15 578.52 1098.96 567.508 1077.51 C 564.674 1080.65 561.7 1084.4 557.977 1086.5 C 551.894 1089.91 544.516 1090.78 538.073 1093.39 C 525.149 1098.63 515.376 1110.03 500.376 1110.48 C 496.988 1110.59 494.525 1110.03 492.03 1107.64 C 491.305 1104.52 491.548 1104.13 492.684 1101.08 C 495.653 1094.49 504.863 1085.08 511.304 1081.72 L 511.113 1079.96 C 496.386 1082.83 484.492 1094.37 470.216 1097.21 C 466.911 1097.87 464.59 1097.66 461.709 1095.75 C 460.289 1093.6 459.128 1091.33 459.528 1088.65 C 460.382 1082.92 466.407 1079.13 470.91 1076.28 C 484.78 1067.49 498.937 1062.17 514.55 1057.44 C 521.72 1055.26 529.62 1053.44 536.33 1050.11 C 542.974 1046.81 548.505 1041.73 553.894 1036.73 C 549.824 1015.51 544.397 995.647 543.11 973.833 C 540.121 923.174 550.751 868.656 529.576 820.723 C 509.765 855.93 489.321 890.254 468.019 924.586 C 442.868 965.121 414.367 1003.94 399.637 1049.87 C 385.099 1095.2 381.388 1139.82 403.952 1183.28 C 421.173 1216.45 449.252 1248.27 480.507 1268.73 C 578.93 1333.17 734.021 1333.43 846.877 1369.16 C 948.667 1401.38 1050.29 1471.73 1100.29 1568.17 C 1131.96 1629.27 1147.87 1703.06 1126.39 1770.08 A 165.951 165.951 0 0 1 1043.07 1868.27 C 991.294 1894.59 897.929 1903.24 841.951 1885.21 C 850.207 1882.11 858.66 1880.08 866.826 1876.56 C 881.04 1870.43 893.645 1861.61 906.097 1852.54 C 948.997 1821.29 984.293 1782.88 1003.95 1732.81 C 1024.19 1681.26 1023.77 1617.73 1001.13 1566.94 C 962.702 1480.75 893.567 1435.99 809.106 1402.42 A 812.103 812.103 0 0 0 722.579 1372.88 C 673.225 1358.99 622.064 1348.26 574.186 1329.75 C 503.869 1302.56 405.754 1252.54 374.406 1180.5 C 344.322 1111.36 369.353 1043.08 403.426 981 C 410.581 967.963 417.544 954.576 425.572 942.062 C 455.807 894.926 495.034 845.977 515.64 794.101 C 488.113 739.801 436.648 710.665 412.007 650.801 z"/>
<path transform="translate(0,0)" fill="rgb(229,240,241)" d="M 617.216 907.525 C 618.09 910.756 618.252 910.619 621.051 912.525 C 617.458 914.962 613.536 917.273 610.231 920.077 L 608.725 919.458 C 610.476 913.948 612.791 911.267 617.216 907.525 z"/>
<path transform="translate(0,0)" fill="rgb(243,249,249)" d="M 709.757 786.842 A 283.151 283.151 0 0 1 724.088 786.9 C 716.271 789.521 708.785 791.263 700.473 790.81 L 701.522 788.941 L 699.112 790.339 L 699.796 790.654 L 700.078 789.44 C 702.673 788.082 705.493 787.624 708.329 786.945 L 709.757 786.842 z"/>
<path transform="translate(0,0)" fill="rgb(94,142,151)" d="M 684.315 304.874 C 684.418 305.446 684.528 306.017 684.623 306.591 C 684.929 308.446 684.742 309.527 684.07 311.304 L 685.416 310.86 L 687.314 306.992 C 689.077 306.881 688.386 306.668 689.471 307.207 C 685.922 313.251 682.557 319.856 678.134 325.289 C 677.388 320.364 682.535 309.767 684.315 304.874 z"/>
<path transform="translate(0,0)" fill="rgb(57,64,72)" d="M 511.113 1079.96 C 516.815 1079.01 522.656 1077.65 528.45 1077.88 L 529.813 1078.99 L 529.276 1080.68 C 522.723 1082.63 517.999 1082.85 511.304 1081.72 L 511.113 1079.96 z"/>
<path transform="translate(0,0)" fill="rgb(243,249,249)" d="M 811.957 826.643 C 816.512 832.432 820.565 841.41 822.337 848.522 C 819.346 846.609 816.474 844.513 814.277 841.678 C 810.579 836.905 811.016 832.284 811.957 826.643 z"/>
<path transform="translate(0,0)" fill="rgb(243,249,249)" d="M 811.082 777.416 C 817.26 780.435 822.66 784.89 828.156 788.978 C 823.234 789.031 818.407 789.545 813.516 790.047 C 812.96 785.816 811.935 781.598 811.082 777.416 z"/>
<path transform="translate(0,0)" fill="rgb(229,240,241)" d="M 1541.65 276.841 C 1552.84 278.903 1563.51 282.241 1574.21 286.104 L 1572.32 287.317 C 1562.83 284.81 1552.52 284.393 1543.26 281.301 L 1544.16 280.406 L 1548.38 280.65 L 1548.25 280.279 L 1550.39 280.994 C 1547.52 278.515 1544.96 279.34 1541.65 276.841 z"/>
<path transform="translate(0,0)" fill="rgb(229,240,241)" d="M 495.475 563.54 L 507.474 569.814 C 505.855 572.991 504.67 576.303 503.426 579.64 C 503.594 581.022 503.725 580.37 503.016 581.591 C 498.739 578.207 496.947 568.663 495.475 563.54 z"/>
<path transform="translate(0,0)" fill="rgb(229,240,241)" d="M 1533.31 514.381 C 1544.85 517.661 1556.48 526.052 1566.74 532.242 C 1553.44 527.694 1540.83 521.436 1527.55 516.796 C 1530.47 516.404 1533.16 516.991 1536.03 517.479 L 1533.8 518.199 L 1535.25 516.326 L 1533.81 515.953 L 1533.31 514.381 z"/>
<path transform="translate(0,0)" fill="rgb(192,220,223)" d="M 1007.7 1985.27 C 1010.53 1992 998.543 2006.19 1001.69 2012.21 C 1007.31 2006.27 1012.34 1991.42 1020.75 1989.45 C 1011.75 2001.47 1003.61 2013.08 996.063 2026.13 C 998.925 2011.99 1002.56 1998.78 1007.7 1985.27 z"/>
<path transform="translate(0,0)" fill="rgb(229,240,241)" d="M 1214.99 1914.64 C 1232.04 1910.47 1248.88 1905.45 1265.75 1900.64 L 1265.8 1902.03 C 1256.49 1906.07 1245.67 1908.23 1235.88 1911.02 C 1244.38 1911.05 1269.66 1905.36 1275.14 1907.57 C 1256.03 1912.36 1234.65 1913.66 1214.99 1914.64 z"/>
<path transform="translate(0,0)" fill="rgb(229,240,241)" d="M 580.579 313.769 C 581.444 318.236 574.49 338.514 573.185 343.767 L 562.578 345.038 C 562.213 341.811 577.916 318.142 580.579 313.769 z"/>
<path transform="translate(0,0)" fill="rgb(229,240,241)" d="M 1611.3 934.754 C 1631.09 936.344 1650.27 943.846 1668 952.457 C 1662.66 953.205 1637.36 941.813 1629.62 939.461 C 1625.57 938.234 1621.35 937.651 1617.17 937.07 C 1625.51 940.584 1652.24 954.043 1655.99 961.814 C 1656.21 962.273 1656.39 963.082 1656.53 963.634 C 1642 952.766 1627.11 943.636 1611.3 934.754 z"/>
<path transform="translate(0,0)" fill="rgb(243,249,249)" d="M 1184.21 1295.61 C 1174.73 1291.51 1165.65 1286.54 1156.12 1282.56 C 1150.47 1280.2 1126.09 1271.89 1123.31 1268.98 C 1134.4 1269.05 1174.85 1285.68 1185.24 1291.34 L 1177.91 1290.37 L 1179.31 1291.4 C 1181.06 1292.71 1182.62 1294.13 1184.21 1295.61 z"/>
<path transform="translate(0,0)" fill="rgb(243,249,249)" d="M 1074.05 772.727 C 1074.65 772.965 1075.06 773.525 1075.54 773.955 C 1074.43 777.087 1048.92 798.577 1043.67 803.675 L 1041.67 802.806 C 1041.17 801.622 1040.52 800.927 1040.98 799.631 C 1044.53 789.578 1065.39 777.946 1074.05 772.727 z"/>
<path transform="translate(0,0)" fill="rgb(243,249,249)" d="M 463.119 1088.56 C 485.572 1069.19 510.644 1063.96 537.749 1054.62 L 537.986 1055.92 C 523.973 1064.05 506.081 1064.06 491.763 1072.84 C 505.137 1070.6 519.959 1062.11 533.856 1064.3 L 534.724 1064.96 C 527.344 1066.52 519.832 1067.17 512.433 1068.94 C 495.003 1073.11 479.203 1080.87 463.119 1088.56 z"/>
<path transform="translate(0,0)" fill="rgb(229,240,241)" d="M 493.962 1286.22 L 496.194 1283.28 C 511.906 1290.95 527.649 1297.88 544.1 1303.81 C 553.389 1307.16 564.343 1309.59 573.099 1313.91 L 572.57 1315.17 C 570.279 1314.64 568.386 1313.97 566.191 1313.11 C 549.734 1306.66 532.499 1302.98 516.726 1294.59 C 515.268 1293.81 513.747 1293.51 512.149 1293.15 L 511.488 1293.74 C 511.812 1293.85 512.138 1293.96 512.459 1294.08 C 518.311 1296.25 522.543 1300.44 528.099 1303.12 C 541.388 1309.54 555.288 1314.76 568.72 1320.88 C 568.933 1322.16 569.084 1321.68 568.741 1322.38 C 542.77 1314.31 517.768 1299.17 493.962 1286.22 z"/>
<path transform="translate(0,0)" fill="rgb(50,58,67)" d="M 511.304 1081.72 C 517.999 1082.85 522.723 1082.63 529.276 1080.68 L 523.28 1089.63 L 497.859 1103.82 C 496.031 1101.47 495.65 1101.71 492.684 1101.08 C 495.653 1094.49 504.863 1085.08 511.304 1081.72 z"/>
<path transform="translate(0,0)" fill="rgb(229,240,241)" d="M 897.683 1224.73 C 914.681 1225.97 931.668 1229.12 948.486 1231.85 C 969.654 1235.29 990.868 1238.6 1011.84 1243.14 C 1014.28 1243.66 1016.75 1244 1019.22 1244.36 L 1019.42 1245.05 C 1009.4 1245.4 984.71 1240.75 973.018 1239.58 C 946.167 1236.9 919.298 1235.97 892.425 1233.9 C 904.417 1230.56 949.918 1235.88 964.738 1236.73 L 964.743 1236.52 L 966.637 1236.77 L 966.658 1237.55 L 966.271 1235.6 C 964.801 1234.97 965.463 1235.08 963.876 1235.07 C 953.756 1234.95 906.353 1228.95 898.412 1225.11 C 898.166 1224.99 897.926 1224.85 897.683 1224.73 z"/>
<path transform="translate(0,0)" fill="rgb(192,220,223)" d="M 403.871 1219.4 C 404.426 1219.49 405.082 1219.56 405.6 1219.78 C 410.323 1221.74 424.491 1239.27 430.165 1243.93 C 442.224 1253.82 456.76 1260.32 468.769 1270 C 470.601 1271.48 474.005 1273.5 476.364 1273.32 C 474.24 1270.79 471.436 1269.46 468.753 1267.64 C 457.809 1260.2 416.089 1222.37 414.677 1211.13 C 414.62 1210.68 414.599 1210.22 414.56 1209.76 C 430.244 1229.41 445.821 1248.32 466.294 1263.28 C 472.733 1267.98 492.183 1279.04 496.194 1283.28 L 493.962 1286.22 C 461.096 1267.53 427.9 1249.52 403.871 1219.4 z"/>
<path transform="translate(0,0)" fill="rgb(93,117,126)" d="M 444.57 564.147 C 454.101 567.987 460.251 575.531 466.383 583.367 L 455.921 588.5 C 450.703 591.372 445.07 593.74 439.669 596.27 C 440.185 585.499 442.464 574.706 444.57 564.147 z"/>
<path transform="translate(0,0)" fill="rgb(229,240,241)" d="M 467.88 586.85 C 471.201 587.777 473.821 591.56 476.094 594.047 C 465.87 601.379 455.715 607.406 444.237 612.576 C 442.172 613.515 442.015 613.686 439.818 613.244 C 438.069 609.264 438.881 604.02 439.031 599.73 C 449.302 596.846 458.527 591.846 467.88 586.85 z"/>
<path transform="translate(0,0)" fill="rgb(243,249,249)" d="M 547.984 1066.42 C 550.61 1066.26 552.606 1065.63 554.927 1066.98 C 552.369 1071.17 542.672 1072.71 537.869 1073.42 C 525.48 1075.24 511.523 1075.27 499.78 1079.79 C 490.343 1083.43 481.617 1089.05 472.138 1092.9 C 469.523 1093.2 468.823 1093.51 466.325 1092.49 L 467.151 1090.97 C 493.431 1073.33 517.191 1068.43 547.984 1066.42 z"/>
<path transform="translate(0,0)" fill="rgb(243,249,249)" d="M 556.394 1065.17 C 559.571 1066.68 562.169 1067.39 565.641 1067.92 L 566.898 1069.9 C 564.505 1074.12 562.312 1077.97 558.303 1080.86 C 550.875 1086.21 540.876 1086.72 532.738 1090.56 C 523.233 1095.04 516.329 1102.4 505.752 1105.53 C 503.39 1106.23 501.201 1106.31 498.757 1106.28 L 497.633 1104.98 L 497.859 1103.82 L 523.28 1089.63 C 530.372 1086.29 537.949 1083.14 544.579 1078.96 C 550.345 1075.33 554.803 1072.03 556.394 1065.17 z"/>
<path transform="translate(0,0)" fill="rgb(243,249,249)" d="M 1194.2 1098.92 C 1197.59 1100.13 1203.36 1112.28 1205.42 1115.83 C 1187.56 1117.02 1169.67 1119.57 1151.84 1121.3 C 1147.87 1121.69 1143.89 1121.89 1139.92 1122.14 C 1158.2 1114.78 1176.18 1106.89 1194.2 1098.92 z"/>
<path transform="translate(0,0)" fill="rgb(243,249,249)" d="M 681.911 725 C 697.999 727.175 712.848 727.434 729.038 726.006 C 729.611 732.313 732.925 739.341 732.792 745.197 C 718.974 747.552 704.537 748.905 691.261 743.61 C 687.734 737.695 684.925 731.198 681.911 725 z"/>
<path transform="translate(0,0)" fill="rgb(229,240,241)" d="M 750.91 741.996 C 768.882 745.342 790.192 748 801.277 764.469 C 807.292 773.407 809.483 785.099 810.988 795.612 C 803.447 787.45 795.642 778.178 786.37 771.934 C 782.047 769.023 774.972 767.559 771.415 763.973 C 764.041 756.54 770.849 755.57 756.287 747.286 C 755.355 745.153 752.692 743.502 750.91 741.996 z"/>
<path transform="translate(0,0)" fill="rgb(243,249,249)" d="M 489.194 544.93 C 517.096 550.387 540.72 569.792 560.829 588.693 C 567.205 594.686 577.101 603.345 577.403 612.581 C 551.076 589.795 531.23 567.925 495.098 561.745 C 492.667 556.173 490.748 550.808 489.194 544.93 z"/>
<path transform="translate(0,0)" fill="rgb(243,249,249)" d="M 654.898 383.785 C 657.436 385.662 671.927 403.715 677.077 408.852 A 371.071 371.071 0 0 0 704.081 433.468 C 716.822 443.965 729.728 450.079 737.563 465.528 L 737.115 466.759 L 735.443 465.985 C 701.955 445.96 673.349 419.344 647.279 390.556 L 654.898 383.785 z"/>
<path transform="translate(0,0)" fill="rgb(243,249,249)" d="M 628.789 255.078 C 626.224 265.614 618.334 277.886 613.757 287.986 C 605.862 305.408 599.419 324.539 595.306 343.203 C 589.64 342.977 583.956 343.063 578.286 343.059 C 578.26 342.205 578.222 341.9 578.363 340.953 C 583.629 305.562 601.796 277.597 628.789 255.078 z"/>
<path transform="translate(0,0)" fill="rgb(229,240,241)" d="M 831.321 793.434 A 1138.94 1138.94 0 0 1 847.781 794.648 C 849.261 795.764 849.887 796.506 850.695 798.234 C 854.308 805.956 850.881 819.456 847.482 826.75 C 845.162 831.729 841.351 836.392 836.023 838.21 C 827.8 833.497 820.3 827.924 813.047 821.848 C 811.908 812.676 812.251 803.815 813.163 794.643 C 819.192 794.092 825.279 793.833 831.321 793.434 z"/>
<path transform="translate(0,0)" fill="rgb(229,240,241)" d="M 632.594 912.219 C 633.323 912.222 634.053 912.23 634.78 912.277 C 642.001 912.741 652.652 916.828 657.212 922.451 C 659.884 925.746 660.698 930.097 659.987 934.217 C 658.452 943.104 651.947 949.965 644.93 955.055 C 644.155 950.736 643.575 945.335 640.208 942.12 C 636.809 938.875 631.654 938.873 627.275 938.508 C 614.562 941.017 606.106 946.584 596.074 954.399 C 597.024 947.592 597.936 941.354 601.42 935.263 C 608.35 923.147 619.42 915.918 632.594 912.219 z"/>
<path transform="translate(0,0)" fill="rgb(57,64,72)" d="M 677.274 355.613 C 679.506 356.924 680.711 359.164 681.92 361.387 C 696.995 389.124 707.535 419.251 725.745 445.306 L 714.013 437.204 C 693.412 421.328 672.045 401.685 657.941 379.8 C 665.087 372.432 671.152 363.836 677.274 355.613 z"/>
<path transform="translate(0,0)" fill="rgb(93,117,126)" d="M 716.793 211.401 C 724.83 210.281 736.981 207.524 744.213 211.952 C 746.503 216.288 745.567 219.462 744.182 224.014 C 736.547 249.096 716.818 270.513 701.36 291.142 C 697.752 295.956 693.822 303.256 689.471 307.207 C 688.386 306.668 689.077 306.881 687.314 306.992 L 685.416 310.86 L 684.07 311.304 C 684.742 309.527 684.929 308.446 684.623 306.591 C 684.528 306.017 684.418 305.446 684.315 304.874 C 688.716 286.898 696.429 269.144 702.782 251.737 C 707.657 238.382 711.734 224.666 716.793 211.401 z"/>
<path transform="translate(0,0)" fill="rgb(57,64,72)" d="M 511.444 569.906 C 535.745 581.031 556.657 596.836 573.089 617.884 C 568.256 632.769 566.025 646.594 565.693 662.251 L 565.506 664.006 C 560.408 660.393 550.74 640.979 545.842 634.252 C 534.14 618.179 520.681 603.73 508.754 587.915 C 508.69 581.345 509.091 576.115 511.444 569.906 z"/>
<path transform="translate(0,0)" fill="rgb(50,58,67)" d="M 433.633 649.593 C 449.152 654.31 466.031 665.028 478.093 675.855 C 503.179 698.372 519.536 729.83 521.314 763.574 C 514.226 757.261 509.038 746.829 502.757 739.473 C 482.926 716.25 442.913 678.322 433.633 649.593 z"/>
<path transform="translate(0,0)" fill="rgb(243,249,249)" d="M 467.791 401.842 C 469.887 403.738 467.623 415.558 467.387 418.696 C 462.579 482.439 476.253 517.779 495.807 575.449 L 488.589 568.253 C 482.92 562.398 477.752 556.713 473.364 549.826 C 449.094 511.732 445.059 454.939 454.601 411.734 C 458.52 407.837 463.232 404.933 467.791 401.842 z"/>
<path transform="translate(0,0)" fill="rgb(243,249,249)" d="M 375.7 526.162 C 401.848 524.133 427.959 529.686 452.407 538.651 C 459.288 541.175 467.619 544.098 470.885 551.105 L 470.034 552.375 C 468.903 552.056 467.718 551.87 466.566 551.639 C 462.519 555.335 462.237 565.431 461.462 570.749 A 96.6208 96.6208 0 0 0 453.608 564.492 C 426.145 544.887 369.832 553.456 337.935 558.733 C 351.793 548.854 363.21 537.586 375.7 526.162 z"/>
<path transform="translate(0,0)" fill="rgb(229,240,241)" d="M 376.634 621.398 C 385.979 619.974 396.423 620.51 405.85 620.936 C 406.774 627.42 407.965 633.719 409.449 640.099 C 360.061 637.746 322.783 650.234 278.245 669.41 C 269.449 673.084 260.385 676.24 251.46 679.593 C 258.526 673.555 265.699 667.525 272.344 661.023 C 279.313 654.205 286.056 646.124 293.952 640.402 C 308.564 629.814 357.358 623.515 376.634 621.398 z"/>
<path transform="translate(0,0)" fill="rgb(192,220,223)" d="M 648.601 823.614 C 663.121 827.061 673.088 830.452 681.289 843.915 C 682.087 845.226 682.808 846.56 683.53 847.915 C 672.573 870.606 660.816 894.01 657.247 919.201 C 649.891 913.675 642.927 907.676 633.058 908.848 C 628.951 909.335 624.859 910.971 621.051 912.525 C 618.252 910.619 618.09 910.756 617.216 907.525 C 628.269 897.478 648.382 852.664 649.053 837.482 C 649.254 832.924 648.956 828.166 648.601 823.614 z"/>
<path transform="translate(0,0)" fill="rgb(192,220,223)" d="M 734.077 739.143 C 739.809 739.616 745.297 740.792 750.91 741.996 C 752.692 743.502 755.355 745.153 756.287 747.286 C 759.296 750.41 763.817 753.413 765.271 757.523 C 765.177 761.59 764.299 764.12 761.245 766.914 C 752.323 775.075 737.203 781.002 725.474 783.517 C 720.814 784.516 713.61 784.154 709.757 786.842 L 708.329 786.945 C 700.594 784.443 691.322 785.787 683.17 783.554 C 672.094 780.519 662.083 774.06 650.629 772.315 C 658.462 770.432 666.353 767.627 673.434 763.758 C 678.551 760.963 684.603 755.111 690.131 753.895 L 691.462 755.649 L 692.283 755.361 C 691.417 753.309 689.954 751.351 690.65 749.196 C 707.276 752.013 721.524 751.416 737.926 747.332 L 734.077 739.143 z"/>
<path transform="translate(0,0)" fill="rgb(229,240,241)" d="M 387.353 643.244 C 393.216 642.949 404.016 641.149 409.361 643.919 C 411.049 644.795 410.458 644.342 411.039 646.457 C 407.044 650.493 394.408 652.847 388.726 655.427 C 376.201 661.114 364.826 669.1 354.326 677.928 C 309.213 715.861 281.231 771.787 226.559 798.811 C 224.257 799.802 222.453 800.251 219.962 800.519 C 217.837 799.667 216.578 798.811 215.129 797.07 C 212.291 793.661 209.622 788.692 210.166 784.107 C 210.377 782.326 210.293 781.75 211.78 780.655 A 81.2853 81.2853 0 0 0 213.564 781.825 C 218.318 784.813 222.235 782.766 227.226 781.237 C 263.271 770.192 290.169 728.373 314.674 701.458 A 389.909 389.909 0 0 1 357.805 660.817 C 366.463 653.877 376.373 645.876 387.353 643.244 z"/>
<path transform="translate(0,0)" fill="rgb(243,249,249)" d="M 649.317 776.818 C 663.676 785.037 680.604 792.616 697.021 795.137 C 695.812 826.62 701.058 852.541 717.97 879.158 C 713.959 876.646 710.323 873.758 706.625 870.82 C 702.263 866.838 697.452 862.571 693.863 857.873 C 687.171 849.114 682.782 836.856 674.02 829.973 C 663.29 821.545 646.368 822.254 636.794 812.429 C 635.977 811.59 635.226 810.659 634.631 809.649 C 632.53 806.083 632.496 801.833 633.526 797.931 C 636.28 787.492 639.829 782.168 649.317 776.818 z"/>
<path transform="translate(0,0)" fill="rgb(229,240,241)" d="M 501.775 386.092 L 502.609 387.126 C 499.001 402.688 497.401 418.4 497.094 434.356 C 496.619 458.988 503.075 523.557 493.817 542.392 C 492.278 542.87 492.52 543.201 491.427 542.534 C 487.561 540.175 486.358 536.728 485.367 532.539 C 472.314 496.094 464.294 435.973 475.258 398.089 C 483.663 393.462 492.984 389.941 501.775 386.092 z"/>
<path transform="translate(0,0)" fill="rgb(229,240,241)" d="M 537.749 1054.62 C 544.283 1050.23 551.765 1045.42 556.856 1039.34 C 565.599 1028.92 573.041 1014.15 578.649 1001.75 C 587.949 981.182 593.487 953.808 617.201 945.209 C 622.018 943.462 627.775 942.446 632.882 943.338 C 635.456 943.788 638.179 945.059 639.638 947.314 C 641.529 950.238 641.472 953.781 640.289 956.937 C 635.576 969.506 604.926 1002.81 595.082 1016.84 C 583.52 1033.32 575.366 1051.72 566.898 1069.9 L 565.641 1067.92 C 562.169 1067.39 559.571 1066.68 556.394 1065.17 C 554.145 1063.06 538.557 1064.84 534.724 1064.96 L 533.856 1064.3 C 519.959 1062.11 505.137 1070.6 491.763 1072.84 C 506.081 1064.06 523.973 1064.05 537.986 1055.92 L 537.749 1054.62 z"/>
<path transform="translate(0,0)" fill="rgb(229,240,241)" d="M 412.722 557.842 C 422.88 558.107 431.57 559.201 441.282 562.243 C 436.273 588.779 434.912 606.588 438.483 633.432 C 432.74 632.932 426.998 632.23 421.264 631.624 C 432.125 657.929 445.539 681.31 463.869 703.22 C 482.463 725.445 502.699 745.067 518.935 769.308 C 522.061 775.834 519.719 780.894 517.877 787.449 C 492.015 745.166 453.951 715.498 428.023 674.496 C 405.628 639.079 403.683 597.867 412.722 557.842 z"/>
<path transform="translate(0,0)" fill="rgb(192,220,223)" d="M 539.085 795.482 C 543.05 799.125 546.047 805.924 548.403 810.799 C 569.992 855.461 564.636 908.292 568.022 956.51 C 569.092 971.751 572.145 986.942 574.717 1001.99 C 570.657 1010.92 565.548 1019.54 560.903 1028.18 C 560.072 1029.85 559.832 1030.12 558.287 1031.38 C 554.873 1028.05 553.944 1019.41 553.075 1014.79 A 363.486 363.486 0 0 1 546.998 951.63 C 546.797 924.112 548.797 896.987 545.947 869.502 C 543.856 849.345 538.614 832.425 531.681 813.572 C 534.323 807.605 536.712 801.559 539.085 795.482 z"/>
<path transform="translate(0,0)" fill="rgb(229,240,241)" d="M 926.037 861.179 C 937.633 860.634 951.202 860.967 961.854 866.041 C 969.208 869.544 974.72 875.283 977.354 883.038 C 981.698 895.828 977.643 910.972 971.764 922.676 C 956.626 952.81 927.601 974.999 896.018 985.401 C 882.202 987.91 874.22 988.216 861.78 981.067 C 886.195 974.105 910.006 958.184 925.767 938.298 C 936.521 924.729 947.596 906.301 945.126 888.234 C 943.435 875.867 935.657 868.128 926.037 861.179 z"/>
<path transform="translate(0,0)" fill="rgb(229,240,241)" d="M 903.665 864.359 C 909.152 863.696 914.515 863.114 920.009 864.157 C 926.401 865.371 931.845 868.304 935.508 873.801 C 940.882 881.862 941.865 892.668 939.894 901.959 C 934.725 926.334 915.275 947.302 895.001 960.521 C 874.891 973.633 857.483 980.587 833.377 975.454 C 830.513 974.526 827.106 973.465 824.945 971.275 C 822.66 968.958 820.676 964.965 821.175 961.673 C 821.614 958.773 823.308 957.151 825.317 955.285 C 837.513 959.276 853.611 953.21 864.71 947.711 C 884.641 937.836 904.93 920.635 911.781 898.727 C 913.516 893.177 914.752 886.272 911.615 880.963 C 906.747 872.725 892.419 871.237 883.848 868.729 C 890.47 866.625 896.771 865.193 903.665 864.359 z"/>
<path transform="translate(0,0)" fill="rgb(93,117,126)" d="M 448.821 416.862 C 449.971 425.387 447.16 435.331 446.874 444.046 C 445.809 476.46 450.414 508.134 462.547 538.265 C 445.466 531.722 429.216 524.776 410.791 522.922 C 399.829 521.307 388.668 521.388 377.623 521.73 C 405.689 487.166 408.087 449.136 448.821 416.862 z"/>
<path transform="translate(0,0)" fill="rgb(93,117,126)" d="M 599.633 343.484 A 576.086 576.086 0 0 1 606.366 321.131 C 611.877 304.135 628.137 259.04 639.78 248.268 C 651.728 237.215 669.975 229.661 684.439 222.318 C 668.564 264.024 642.589 315.022 647.89 360.837 C 645.507 361.06 646.485 360.685 644.854 361.651 C 645.114 359.185 645.252 360.403 644.392 358.001 C 633.387 348.677 613.469 345.479 599.633 343.484 z"/>
<path transform="translate(0,0)" fill="rgb(229,240,241)" d="M 1053.69 754.999 C 1055.97 754.731 1054.89 754.558 1056.93 755.474 C 1052 762.447 1044.58 768.998 1041.16 776.852 C 1037.45 785.369 1033.29 798.531 1036.72 807.468 C 1037.8 808.448 1038.25 809.289 1039.8 809.4 C 1048.39 810.009 1060.9 794.89 1066.73 789.252 C 1066.41 789.824 1066.08 790.393 1065.76 790.969 C 1063.68 794.716 1061.59 798.088 1058.95 801.477 C 1051.92 810.496 1042.99 822.492 1032.97 828.365 C 1024.93 833.079 1013.89 833.761 1004.78 835.069 C 986.781 837.651 968.563 840.771 950.367 841.1 C 932.53 841.423 914.784 839.214 897.019 839.467 C 887.743 839.599 878.443 840.832 869.25 841.981 C 859.047 842.737 850.021 842.369 839.983 840.307 C 842.519 838.477 845.057 836.389 847.197 834.104 C 854.869 825.914 855.103 816.724 855.024 806.177 C 862.634 806.929 869.794 807.687 876.942 810.648 C 892.023 816.895 894.874 822.941 913.066 824.588 C 931.922 826.295 953.458 828.862 972.318 827.366 C 979.09 826.829 995.399 820.7 999.498 821.874 C 1001.38 822.415 1001.57 822.502 1003.32 821.702 C 1003.01 821.127 1002.71 820.541 1002.38 819.977 C 1002.04 819.406 1001.66 818.858 1001.31 818.298 C 1001.8 816.085 1002.36 814.136 1003.25 812.042 C 1008.85 798.952 1018.98 774.903 1030.23 766.474 C 1037.13 761.297 1045.77 758.2 1053.69 754.999 z"/>
<path transform="translate(0,0)" fill="rgb(93,117,126)" d="M 385.846 557.419 C 393.155 556.964 400.542 557.203 407.865 557.253 A 206.91 206.91 0 0 0 404.268 617.153 C 373.505 614.864 344.139 620.803 314.436 628.018 C 307.927 629.852 301.514 632.023 295.083 634.112 C 307.084 611.841 312.966 584.902 329.774 565.623 C 348.408 560.944 366.707 558.492 385.846 557.419 z"/>
<path transform="translate(0,0)" fill="rgb(57,64,72)" d="M 581.11 694.564 C 610.379 714.275 643.347 720.924 677.602 726.38 C 680.548 732.013 684.421 738.587 684.5 745.067 C 684.723 763.146 653.553 762.618 639.549 777.074 C 629.622 787.32 628.48 798.747 628.972 812.266 C 633.153 817.197 642.791 821.386 644.592 826.801 C 646.115 849.439 636.619 865.971 626.334 885.346 C 624.74 865.885 623.617 846.418 620.637 827.099 C 613.716 782.237 598.737 736.314 581.11 694.564 z"/>
<path transform="translate(0,0)" fill="url(#Gradient1)" d="M 470.885 551.105 C 478.257 561.433 486.754 570.082 495.113 579.538 C 508.492 594.672 522.314 610.349 534.489 626.456 C 592.432 703.113 619.141 801.896 621.608 897.114 C 615.017 900.493 611.738 903.197 607.956 909.545 L 607.121 910.93 C 606.956 911.208 606.799 911.49 606.638 911.771 C 602.328 817.91 583.567 715.77 524.499 639.595 C 506.308 616.137 483.733 597.34 463.916 575.441 C 464.736 569.144 465.199 562.749 467.534 556.804 L 470.619 555.073 L 470.034 552.375 L 470.885 551.105 z"/>
<path transform="translate(0,0)" fill="rgb(93,117,126)" d="M 370.643 645.498 L 371.398 646.121 C 353.607 661.936 334.576 675.96 317.829 693.086 C 298.867 712.476 282.713 734.341 263.363 753.371 C 248.84 767.653 232.936 779.432 211.718 779.27 C 211.236 778.209 210.814 777.292 210.644 776.126 C 207.548 754.876 219.386 713.048 233.188 696.565 C 237.38 691.558 243.44 687.844 249.262 684.968 C 258.586 680.364 269.033 677.643 278.738 673.895 C 297.865 666.509 316.49 657.963 336.231 652.255 C 347.576 648.974 358.854 646.402 370.643 645.498 z"/>
<path transform="translate(0,0)" fill="rgb(192,220,223)" d="M 684.349 853.719 C 687.319 856.634 690.853 859.654 693.228 863.082 C 700.779 873.984 708.298 897.399 715.477 911.181 C 723.34 926.279 732.404 941.022 742.014 955.067 C 781.966 1013.45 849.101 1078.42 913.359 1109.1 C 928.553 1116.36 946.243 1123.23 962.736 1126.7 C 965.977 1127.38 970.209 1127.56 972.975 1129.44 L 968.69 1130.71 C 928.426 1134.81 914.105 1132.28 876.578 1114.32 C 794.628 1075.1 739.338 993.309 701.931 913.302 C 694.479 897.364 686.713 881.242 680.851 864.643 L 684.349 853.719 z"/>
<path transform="translate(0,0)" fill="rgb(192,220,223)" d="M 66.7573 346.737 C 69.9965 328.626 83.6698 285.95 94.2803 271.492 L 93.5987 273.093 C 87.0609 288.658 80.7136 312.553 77.2035 329.164 C 75.3291 338.033 74.4572 349.502 71.1765 357.774 C 68.3755 380.424 64.8625 403.03 63.4594 425.83 C 59.0595 497.322 67.208 573.956 91.7052 641.58 A 397.186 397.186 0 0 0 160.715 761.371 C 167.12 768.91 174.68 778.374 183.785 782.625 C 184.618 791.054 185.933 799.098 187.928 807.334 C 148.79 790.428 119.307 753.621 100.621 716.306 C 52.82 620.85 38.5603 495.061 57.3495 390.531 C 59.9605 376.006 62.115 360.755 66.7573 346.737 z"/>
<path transform="translate(0,0)" fill="rgb(243,249,249)" d="M 465.019 65.4481 C 517.66 62.4959 590.91 71.8793 640.256 90.5446 C 689.854 109.305 741.355 136.122 764.186 186.579 C 753.238 180.518 741.869 183.16 730.168 185.085 C 723.144 163.374 689.678 144.837 670.219 133.61 C 585.709 89.0988 482.612 73.7247 387.965 79.4213 C 366.681 80.7023 345.997 85.0145 324.866 87.0788 C 365.016 72.1998 422.104 67.018 465.019 65.4481 z"/>
<path transform="translate(0,0)" fill="rgb(192,220,223)" d="M 585.904 1039.05 C 592.034 1059.38 598.689 1079.29 609.627 1097.64 C 621.198 1117.06 635.546 1135.09 652.976 1149.57 C 700.669 1189.21 770.754 1205.91 830.955 1215.4 C 850.06 1218.41 879.301 1219.58 896.532 1224.35 C 896.921 1224.46 897.3 1224.6 897.683 1224.73 C 897.926 1224.85 898.166 1224.99 898.412 1225.11 C 906.353 1228.95 953.756 1234.95 963.876 1235.07 C 965.463 1235.08 964.801 1234.97 966.271 1235.6 L 966.658 1237.55 L 966.637 1236.77 L 964.743 1236.52 L 964.738 1236.73 C 949.918 1235.88 904.417 1230.56 892.425 1233.9 C 878.987 1234.36 865.266 1233.26 851.828 1232.7 C 782.006 1229.79 709.92 1218.11 650.491 1178.7 C 614.182 1154.63 580.611 1113.5 571.869 1069.99 C 576.282 1059.53 580.646 1049.13 585.904 1039.05 z"/>
<path transform="translate(0,0)" fill="rgb(93,117,126)" d="M 526.458 375.134 C 559.38 373.241 595.424 374.717 627.962 379.616 C 567.457 418.738 563.191 424.189 544.671 494.756 C 536.785 527.232 530.777 524.35 510.443 546.964 L 509.72 547.784 L 499.057 542.81 C 501.21 528.893 502.959 515.042 503.121 500.936 C 503.576 461.312 497.865 422.599 508.541 383.62 C 514.287 380.445 520.491 377.879 526.458 375.134 z"/>
<path transform="translate(0,0)" fill="rgb(229,240,241)" d="M 972.229 867.581 C 983.041 869.664 994.102 872.925 1004.43 876.714 C 1076.64 903.209 1144.88 989.79 1176.52 1058.15 L 1167.4 1062.75 L 1165.11 1063.72 C 1160.75 1062.7 1152.08 1050.98 1148.75 1047.34 C 1132.86 1030.04 1116.32 1014.43 1098.31 999.387 C 1060.95 968.191 1021.6 944.131 977.702 923.402 C 980.76 915.254 983.528 906.744 984.013 897.992 C 984.687 885.814 980.392 876.363 972.229 867.581 z"/>
<path transform="translate(0,0)" fill="url(#Gradient2)" d="M 403.871 1219.4 C 390.087 1206.53 379.38 1183.55 373.183 1166.01 C 351.428 1104.45 376.068 1042.02 405.079 987.543 C 415.344 968.268 426.046 949.418 437.949 931.105 C 466.569 887.07 532.273 805.623 524.906 751.815 C 520.123 716.89 495.849 680.491 465.897 662.067 C 454.244 654.899 440.115 650.344 429.408 641.874 C 427.276 640.187 425.442 638.58 425.069 635.822 C 427.237 634.809 429.443 635.448 431.762 635.894 C 468.44 642.94 499.063 669.995 518.664 700.676 C 534.212 725.012 543.812 751.987 539.348 781.084 C 535.308 807.412 519.484 831.129 506.075 853.632 A 2847.9 2847.9 0 0 1 456.487 933.825 C 427.688 979.273 399.224 1022.24 387.697 1075.75 C 376.428 1128.05 385.882 1165.51 414.56 1209.76 C 414.599 1210.22 414.62 1210.68 414.677 1211.13 C 416.089 1222.37 457.809 1260.2 468.753 1267.64 C 471.436 1269.46 474.24 1270.79 476.364 1273.32 C 474.005 1273.5 470.601 1271.48 468.769 1270 C 456.76 1260.32 442.224 1253.82 430.165 1243.93 C 424.491 1239.27 410.323 1221.74 405.6 1219.78 C 405.082 1219.56 404.426 1219.49 403.871 1219.4 z"/>
<path transform="translate(0,0)" fill="rgb(57,64,72)" d="M 439.981 619.105 C 453.549 614.711 469.233 607.192 478.528 596.086 C 552.636 668.186 585.033 748.855 597.412 850.231 A 516.855 516.855 0 0 1 600.512 884.888 C 601.079 896.654 599.68 912.549 603.087 923.724 C 605.609 923.099 606.882 921.236 608.725 919.458 L 610.231 920.077 C 606.268 925.26 600.126 928.789 596.75 934.412 C 591.888 942.51 593.548 952.991 590.76 961.859 C 587.471 972.32 582.183 982.53 577.687 992.533 C 573.91 967.89 572.564 943.538 571.475 918.666 C 570.128 887.91 570.149 857.136 560.32 827.568 C 555.852 814.126 549.256 802.207 542.301 789.952 C 547.496 766.343 544.503 743.849 535.153 721.565 C 517.804 680.218 483.174 650.519 442.396 633.828 C 441.496 628.941 440.775 624.011 439.981 619.105 z"/>
<path transform="translate(0,0)" fill="rgb(163,197,202)" d="M 1007.7 1985.27 C 1022.58 1944.37 1051.88 1911.2 1091.43 1892.77 C 1136.52 1871.75 1186.09 1870.05 1234.8 1866.28 C 1258.94 1864.41 1283.55 1862.15 1306.63 1854.41 C 1332.06 1845.89 1354.5 1831.9 1375.15 1815.01 C 1330.12 1871.21 1274.31 1901.63 1203.83 1913.4 C 1162.39 1920.32 1124.4 1925.24 1085.77 1943.64 C 1069.36 1951.46 1052.57 1961.22 1038.62 1972.97 C 1032.42 1978.19 1026.93 1984.2 1020.75 1989.45 C 1012.34 1991.42 1007.31 2006.27 1001.69 2012.21 C 998.543 2006.19 1010.53 1992 1007.7 1985.27 z"/>
<path transform="translate(0,0)" fill="rgb(163,197,202)" d="M 1752.82 1671.91 C 1752.89 1672.97 1752.96 1673.22 1752.69 1674.4 C 1747.53 1696.76 1700.83 1763.04 1683.56 1775.28 C 1683.14 1775.58 1682.7 1775.86 1682.28 1776.15 C 1664.27 1788.54 1642.18 1797.19 1622.98 1807.88 C 1566.73 1839.18 1522.04 1885.83 1496.73 1945.32 C 1496.45 1944.18 1496.22 1943.21 1496.19 1942.03 C 1494.81 1890.35 1545.63 1771.25 1591.06 1745.1 C 1603.92 1737.7 1619.25 1734.9 1633.47 1731.08 C 1677 1719.37 1719.72 1703.91 1752.82 1671.91 z"/>
<path transform="translate(0,0)" fill="rgb(229,240,241)" d="M 976.051 925.965 A 608.249 608.249 0 0 1 1160.01 1066.49 C 1148.35 1071.73 1136.83 1077.34 1125.26 1082.78 C 1111.18 1073.02 1094.91 1066.2 1079.25 1059.41 A 652.613 652.613 0 0 0 992.484 1029.67 C 952.015 1018.89 909.933 1013.36 873.625 991.208 C 881.752 991.286 889.571 990.902 897.5 988.989 C 931.386 980.813 958.239 954.804 976.051 925.965 z"/>
<path transform="translate(0,0)" fill="rgb(243,249,249)" d="M 762.016 471.128 C 785.782 483.66 812.106 493.885 837.957 501.218 C 960.142 535.875 1067.72 492.693 1164.34 418.378 C 1213.43 380.623 1259.05 338.263 1313.51 308.061 A 309.297 309.297 0 0 1 1502.14 270.25 C 1515.19 271.681 1529.02 273.202 1541.65 276.841 C 1544.96 279.34 1547.52 278.515 1550.39 280.994 L 1548.25 280.279 L 1548.38 280.65 L 1544.16 280.406 L 1543.26 281.301 C 1397.87 270.24 1322.08 342.437 1212.64 421.436 C 1115.46 491.588 993.931 540.064 872.378 520.209 C 851.577 516.811 791.371 500.38 775.066 487.468 C 769.987 483.446 765.795 476.382 762.016 471.128 z"/>
<path transform="translate(0,0)" fill="rgb(57,64,72)" d="M 678.071 869.608 C 682.115 876.811 685.109 885.193 688.487 892.761 C 696.188 910.013 703.773 927.363 712.585 944.084 C 744.533 1004.71 789.757 1065.76 848.39 1102.86 C 871.399 1117.43 895.9 1127.85 921.818 1135.92 C 910.134 1135.21 898.456 1135.01 886.755 1134.76 C 849.234 1130.44 825.063 1129.05 788.195 1114.58 C 734.32 1093.44 690.907 1054.35 662.455 1004.03 C 654.98 990.804 649.078 976.853 643.017 962.949 C 670.561 941.154 661.121 942.046 664.879 912.206 C 666.579 898.704 672.242 881.95 678.071 869.608 z"/>
<path transform="translate(0,0)" fill="rgb(229,240,241)" d="M 680.778 351.041 C 683.958 346.502 687.216 342.16 690.758 337.895 C 713.561 391.313 736.945 445.479 772.903 491.557 C 782.658 504.058 793.879 515.687 804.593 527.378 C 828.384 553.342 855.603 577.712 886.51 594.979 A 271.18 271.18 0 0 0 947.814 619.295 C 1089.43 656.027 1184.9 520.815 1310.47 486.125 C 1371.3 469.32 1439.86 478.102 1498.64 499.504 C 1510.34 503.765 1522.45 508.266 1533.31 514.381 L 1533.81 515.953 L 1535.25 516.326 L 1533.8 518.199 L 1536.03 517.479 C 1533.16 516.991 1530.47 516.404 1527.55 516.796 C 1490.84 506.631 1454.53 498.018 1416.16 498.319 A 343.4 343.4 0 0 0 1296.71 521.626 C 1279.46 528.295 1262.97 536.761 1246.45 545.011 C 1151.27 592.522 1049.57 662.664 937.659 633.66 C 909.223 626.29 881.337 614.392 857.088 597.728 C 798.457 557.439 749.902 483.983 716.354 422.104 C 704.034 399.38 694.737 374.562 681.606 352.42 L 680.778 351.041 z"/>
<path transform="translate(0,0)" fill="rgb(229,240,241)" d="M 768.15 767.809 C 768.526 767.921 768.93 767.965 769.279 768.145 C 773.59 770.368 778.069 775.355 782.143 778.252 C 802.046 792.402 806.827 798.974 807.385 824.07 C 807.513 829.825 807.831 835.447 810.199 840.795 C 819.058 860.81 846.367 869.466 866.214 872.122 C 876.782 873.536 889.104 873.354 899.023 877.322 C 903.287 879.028 907.305 882.321 908.827 886.778 C 910.69 892.231 908.439 897.993 905.951 902.845 C 893.722 926.698 870.83 942.475 845.755 950.377 C 841.996 951.16 837.62 952.213 833.787 951.978 C 826.374 951.523 819.743 943.339 813.592 939.736 C 786.251 923.718 753.58 909.333 731.497 885.993 C 709.025 862.241 704.124 827.681 704.895 796.333 C 728.999 793.692 749.354 782.382 768.15 767.809 z"/>
<path transform="translate(0,0)" fill="rgb(192,220,223)" d="M 190.098 179.403 C 190.397 179.361 190.695 179.31 190.996 179.277 C 206.425 177.589 223.579 178.598 239.112 179.319 C 340.538 184.027 487.638 224.248 567.157 288.616 C 555.881 305.445 544.255 320.986 530.198 335.641 C 522.098 343.853 513.183 350.518 503.234 356.308 C 489.129 339.399 471.864 325.749 454.345 312.584 C 370.079 249.261 269.352 210.851 168.973 181.519 L 190.098 179.403 z"/>
<path transform="translate(0,0)" fill="rgb(229,240,241)" d="M 1165.69 1155.53 C 1187.56 1154.67 1210.18 1155.02 1231.98 1156.95 C 1278.7 1211.98 1334.67 1247.89 1406.28 1261.28 C 1425.5 1264.88 1451.28 1264.65 1469.04 1272.17 C 1482.91 1278.05 1491.01 1291.91 1502.25 1301.27 C 1508.95 1306.85 1516.16 1310.54 1524.09 1314.08 C 1551.36 1326.24 1581.33 1331.6 1605.31 1350.6 C 1632.51 1372.14 1646.9 1412.32 1650.57 1445.71 L 1641.91 1434.67 C 1620.88 1410.33 1592.9 1391.02 1561.23 1384.01 C 1545.74 1380.58 1530.27 1377.93 1516.16 1370.26 C 1504.85 1364.12 1494.24 1356.69 1482.87 1350.66 C 1463.03 1340.14 1443.22 1331.36 1424.57 1318.55 C 1400.53 1302.03 1380.23 1281.24 1354.52 1266.93 C 1331.1 1253.88 1304.74 1246.73 1280.1 1236.32 C 1232.51 1216.22 1190.42 1187.92 1150.05 1155.96 L 1165.69 1155.53 z"/>
<path transform="translate(0,0)" fill="rgb(163,197,202)" d="M 1617.17 937.07 C 1621.35 937.651 1625.57 938.234 1629.62 939.461 C 1637.36 941.813 1662.66 953.205 1668 952.457 C 1679.82 956.501 1691.01 964.312 1701.28 971.308 C 1758.69 1010.41 1802.25 1069.35 1832.62 1131.16 C 1864.27 1195.59 1893.02 1295.92 1883.66 1368.04 C 1867.08 1331.74 1844.14 1299.81 1820.34 1267.93 C 1810.95 1255.35 1799.3 1243.15 1791.67 1229.44 C 1786.19 1219.58 1784.94 1196.49 1782.67 1184.73 C 1780.22 1172.06 1777.22 1159.26 1773.45 1146.93 A 411.202 411.202 0 0 0 1692.54 999.623 C 1685.5 991.534 1678.14 984.021 1670.35 976.661 C 1666.14 972.689 1659.81 968.176 1656.53 963.634 C 1656.39 963.082 1656.21 962.273 1655.99 961.814 C 1652.24 954.043 1625.51 940.584 1617.17 937.07 z"/>
<path transform="translate(0,0)" fill="rgb(163,197,202)" d="M 1544.34 285.319 A 297.205 297.205 0 0 1 1681.05 344.473 C 1754.4 402.057 1791.69 493.084 1811.1 581.658 C 1814.7 598.107 1818.7 614.894 1820.75 631.6 C 1815.01 629.094 1769.8 587.77 1759.67 579.631 C 1740.92 564.58 1721.34 550.913 1701.58 537.251 C 1696.63 520.88 1693.51 504.035 1689.73 487.367 C 1674.8 421.642 1649.12 354.842 1592.75 313.529 C 1582.51 306.029 1571.22 299.586 1559.99 293.692 C 1555.33 291.252 1550.28 289.207 1545.88 286.344 L 1544.34 285.319 z"/>
<path transform="translate(0,0)" fill="url(#Gradient3)" d="M 1184.21 1295.61 C 1182.62 1294.13 1181.06 1292.71 1179.31 1291.4 L 1177.91 1290.37 L 1185.24 1291.34 C 1204.68 1297.45 1224.17 1309.37 1241.67 1319.69 C 1321.3 1366.66 1388.14 1430.78 1431.19 1513.19 C 1466.88 1581.51 1489.06 1680.49 1465.26 1755.32 C 1447.87 1809.98 1406.45 1855.59 1355.61 1881.53 C 1334.4 1892.35 1298.4 1906.49 1275.14 1907.57 C 1269.66 1905.36 1244.38 1911.05 1235.88 1911.02 C 1245.67 1908.23 1256.49 1906.07 1265.8 1902.03 L 1265.75 1900.64 C 1276.69 1894.85 1288.93 1891.06 1300.04 1885.22 C 1341.09 1863.62 1372.05 1830.36 1394.91 1790.38 C 1434.34 1721.45 1438.15 1640.35 1417.49 1564.72 C 1390.99 1467.69 1327.35 1389.14 1245.27 1332.45 C 1225.59 1318.86 1204.94 1307.45 1184.21 1295.61 z"/>
<path transform="translate(0,0)" fill="rgb(229,240,241)" d="M 712.905 211.632 C 705.24 235.193 696.122 258.073 688.051 281.46 C 681.609 300.124 677.118 320.196 669.374 338.293 C 665.725 346.821 661.049 354.413 656.409 362.397 C 664.041 355.108 669.01 344.458 674.854 335.626 A 2053.63 2053.63 0 0 1 700.547 298.333 C 713.309 280.332 728.5 263.942 739.81 244.968 C 744.406 237.259 750.893 225.94 751.291 216.83 C 751.414 214.006 750.866 211.259 749.006 209.019 C 745.391 204.665 738.387 203.98 733.146 203.996 C 691.83 204.121 635.164 239.496 607.205 268.604 A 205.512 205.512 0 0 0 580.301 304.113 C 570.702 320.088 562.436 337.693 549.34 351.165 C 520.092 381.254 475.211 385.532 444.46 413.858 C 422.904 433.714 408.859 455.821 395.598 481.577 C 388.346 495.66 381.451 509.604 371.664 522.161 C 356.078 542.159 331.168 553.142 318.033 573.59 C 304.474 594.7 299.772 620.121 285.307 641.018 C 268.799 664.865 239.193 676.551 224.79 701.317 C 212.373 722.668 205.077 750.811 205.753 775.507 C 205.89 780.512 213.025 804.404 212.27 805.278 C 209.811 808.128 204.593 808.748 201.025 808.85 C 198.56 808.921 194.824 808.868 192.896 807.143 C 187.794 802.577 188.623 791.624 188.855 785.359 C 189.889 757.496 202.31 692.121 223.676 673.113 C 237.641 660.688 256.004 653.564 268.319 639.249 C 286.788 617.782 287.635 584.881 310.447 558.318 C 328.824 536.919 354.864 525.514 371.173 501.673 C 379.624 489.318 385.002 475.612 391.436 462.19 A 215.213 215.213 0 0 1 426.142 410.604 C 436.816 398.833 449.196 388.2 463.135 380.479 C 488.02 366.695 513.423 360.204 534.082 339.182 C 555.159 317.735 568.648 291.921 587.262 268.799 C 622.528 224.99 671.388 195.65 727.614 189.783 C 735.316 188.979 743.589 187.309 751.337 187.918 C 756.076 188.291 761.45 189.352 764.72 193.104 C 767.845 196.689 768.207 201.678 767.769 206.215 C 766.373 220.681 758.26 235.883 750.975 248.156 C 733.027 278.388 707.848 305.903 686.475 333.794 C 673.415 350.836 662.742 372.412 645.705 385.771 C 626.835 400.567 602.641 408.643 585.5 425.441 C 558.269 452.128 562.314 493.137 547.378 525.689 C 542.181 537.014 534.783 545.843 526.758 555.228 L 513.31 548.723 C 521.809 541.502 530.517 534.363 536.859 525.07 C 555.33 498.004 550.929 454.83 574.642 424.07 C 586.559 408.613 610.731 393.148 627.67 383.267 C 635.814 378.517 645.558 374.698 652.327 368.07 C 645.884 371.275 639.332 375.02 632.546 377.386 C 599.044 371.057 566.616 371.211 532.701 370.148 C 542.398 363.851 550.647 356.941 558.802 348.767 C 565.228 348.491 571.533 347.397 577.939 347.01 C 594.396 346.014 610.639 349.23 626.422 353.632 C 632.527 355.335 638.856 360.988 644.854 361.651 C 646.485 360.685 645.507 361.06 647.89 360.837 L 649.786 363.511 L 650.838 363.428 C 651.603 359.387 650.765 354.912 650.914 350.773 C 651.124 344.897 651.98 339.026 652.958 333.236 C 659.685 293.386 673.42 255.402 690.092 218.704 C 697.559 215.713 705.076 213.475 712.905 211.632 z"/>
<path transform="translate(0,0)" fill="rgb(192,220,223)" d="M 413.821 82.4535 C 484.442 80.0196 557.607 92.726 623.804 117.168 C 654.601 128.54 712.824 155.29 726.668 185.379 C 697.239 187.914 671.463 198.156 645.813 212.223 C 603.557 178.694 551.276 158.131 499.228 145.5 C 404.154 122.702 300.676 123.557 207.996 156.037 C 193.064 161.27 176.697 166.502 163.053 174.587 C 177.435 159.683 195.848 147.09 213.495 136.437 C 276.882 98.1694 340.44 84.7029 413.821 82.4535 z"/>
<path transform="translate(0,0)" fill="rgb(57,64,72)" d="M 703.773 874.897 C 713.153 882.518 723.551 888.195 733.482 894.983 C 748.27 905.091 762.194 916.109 777.668 925.224 C 791.405 933.316 807.847 939.379 819.896 949.797 C 818.223 954.611 815.521 960.425 816.223 965.587 C 818.618 983.187 844.798 980.393 856.837 984.921 C 870.396 990.022 881.708 1004.93 898.057 1010.72 C 923.819 1019.85 951.106 1025.16 977.594 1031.78 C 1011.06 1040.14 1043.82 1050.21 1075.72 1063.38 C 1090.69 1069.55 1106.36 1076.15 1119.63 1085.49 L 1091.83 1096.15 A 311.947 311.947 0 0 1 1083.94 1099.08 A 1004.91 1004.91 0 0 1 1030.93 1115.96 C 1017.46 1119.89 1003.06 1124.43 989.05 1125.59 C 965.018 1127.58 936.482 1115.57 915.329 1105.41 C 885.241 1090.98 855.112 1069.78 830.079 1047.77 C 784.143 1007.4 723.867 932.708 703.773 874.897 z"/>
<path transform="translate(0,0)" fill="rgb(243,249,249)" d="M 339.474 134.406 C 340.478 134.307 341.483 134.218 342.491 134.174 C 427.733 130.453 519.89 145.467 596.03 185.153 C 612.233 193.598 627.918 202.62 641.586 214.874 C 606.161 234.951 594.771 256.323 569.377 284.502 C 550.8 267.492 525.614 255.236 503.2 244.068 C 408.33 199.346 265.395 158.558 160.434 180.091 C 172.213 172.609 185.566 167.947 198.624 163.229 C 244.431 146.676 290.847 137.432 339.474 134.406 z"/>
<path transform="translate(0,0)" fill="rgb(192,220,223)" d="M 158.757 181.898 C 166.5 186.771 182.749 189.805 192.144 192.685 A 1703.25 1703.25 0 0 1 239.729 208.092 C 326.618 238.284 437.119 290.828 501.352 357.074 C 481.625 365.909 462.178 374.234 444.655 387.1 C 426.139 401.472 409.209 422.814 397.326 443.027 C 387.216 430.382 374.879 419.241 363.246 408.021 C 343.896 389.356 324.147 370.979 305.313 351.796 C 276.069 322.01 250.896 289.114 223.535 257.735 C 204.158 235.511 182.489 214.7 163.917 191.908 C 161.331 188.734 159.908 185.812 158.757 181.898 z"/>
<path transform="translate(0,0)" fill="rgb(243,249,249)" d="M 150.476 187.773 C 153.315 191.338 150.313 201.403 149.232 205.796 C 115.703 342.07 111.624 461.879 164.003 594.207 C 176.677 626.225 192.47 656.466 207.711 687.287 C 194.131 717.372 187.389 747.913 184.6 780.652 C 177.573 775.761 172.269 769.379 166.689 762.97 C 93.5157 677.099 65.3361 566.044 66.3029 454.999 C 67.028 371.719 89.2486 247.907 150.476 187.773 z"/>
<path transform="translate(0,0)" fill="rgb(192,220,223)" d="M 154.65 199.883 C 158.154 205.05 160.429 230.412 161.646 238.703 C 166.687 273.063 171.635 307.034 181.353 340.48 C 207.276 429.699 241.442 497.007 294.308 573.124 C 273.633 612.899 283.482 626.967 241.517 654.559 C 228.116 663.142 219.434 670.412 210.21 683.403 C 140.444 550.48 113.438 436.129 136.749 286.502 C 141.297 257.307 147.968 228.642 154.65 199.883 z"/>
<path transform="translate(0,0)" fill="rgb(163,197,202)" d="M 1544.73 527.079 C 1578.99 535.773 1617.35 563.57 1645.25 585.184 A 639.006 639.006 0 0 1 1780.54 729.936 C 1791.75 746.748 1801.64 764.536 1811.88 781.951 C 1823.16 801.139 1835.11 820.098 1845.61 839.714 C 1864.71 875.362 1881.61 912.272 1899.64 948.474 C 1925.14 999.683 1948.7 1050.33 1984.75 1095.19 C 1962.84 1091.21 1940.13 1083 1920.15 1073.49 C 1889.47 1058.9 1831.07 1021.18 1815.4 991.794 C 1811.1 983.731 1805.5 949.3 1802.82 937.512 A 1161.72 1161.72 0 0 0 1788.21 879.339 C 1777.66 841.439 1765.57 803.361 1748.97 767.626 C 1714.72 693.879 1651.85 614.147 1590.05 561.409 C 1575.55 549.037 1559.98 538.458 1544.73 527.079 z"/>
<path transform="translate(0,0)" fill="rgb(192,220,223)" d="M 771.723 607.034 C 777.938 618.431 807.355 617.964 815.018 630.566 C 816.828 633.544 817.436 636.818 816.512 640.199 C 813.557 651.009 800.043 658.309 792.831 666.328 C 780.741 679.771 781.899 703.543 765.246 712.513 C 728.043 732.552 659.391 720.333 619.955 708.061 C 602.662 702.68 583.519 694.367 575.012 677.248 C 566.482 660.084 571.688 637.131 577.578 619.917 C 590.243 582.901 617.268 547.274 653.141 530.099 C 670.034 522.012 688.35 521.002 705.983 527.297 C 733.113 536.981 750.249 554.479 762.232 580.127 C 766.715 588.645 771.565 597.143 771.723 607.034 z"/>
<path transform="translate(0,0)" fill="rgb(229,240,241)" d="M 765.733 672.618 L 767.679 670.716 C 770.774 670.762 774.62 672.005 776.809 674.291 C 778.08 675.619 777.792 674.972 777.801 676.672 C 774.598 677.892 771.09 678.75 767.704 679.281 C 765.912 680.011 764.2 680.495 762.336 680.998 L 760.185 679.688 L 759.806 678.049 C 761.379 675.251 763.089 674.223 765.733 672.618 z"/>
<path transform="translate(0,0)" fill="rgb(229,240,241)" d="M 769.171 681.496 C 771.233 681.439 773.208 681.523 775.264 681.692 L 775.447 683.007 C 770.73 688.085 760.999 691.872 754.846 695.289 C 753.069 695.816 751.645 696.189 749.786 696.171 L 749.4 694.821 C 753.184 688.461 762.313 683.515 769.171 681.496 z"/>
<path transform="translate(0,0)" fill="rgb(0,0,0)" d="M 744.704 611.196 L 743.853 613.637 L 742.902 613.213 C 740.015 605.676 739.871 594.748 743.032 587.252 C 744.163 584.569 746.115 581.994 749.115 581.323 C 752.883 580.481 756.752 582.241 759.948 584.011 C 758.644 585.544 758.929 585.887 756.822 586.08 C 753.17 586.415 749.033 586.346 746.495 589.442 C 742.878 593.853 743.899 605.778 744.704 611.196 z"/>
<path transform="translate(0,0)" fill="rgb(229,240,241)" d="M 759.948 584.011 C 760.568 582.342 761.163 581.514 762.232 580.127 C 766.715 588.645 771.565 597.143 771.723 607.034 L 771.141 607.144 C 768.416 604.074 765.862 600.41 761.3 600.582 C 758.098 600.702 755.578 602.636 753.755 605.116 C 750.667 609.317 748.862 614.106 747.648 619.128 L 745.619 617.201 C 745.502 615.554 745.367 614.025 745.004 612.409 C 744.912 612.002 744.804 611.6 744.704 611.196 C 743.899 605.778 742.878 593.853 746.495 589.442 C 749.033 586.346 753.17 586.415 756.822 586.08 C 758.929 585.887 758.644 585.544 759.948 584.011 z"/>
<path transform="translate(0,0)" fill="rgb(243,249,249)" d="M 747.648 619.128 C 748.862 614.106 750.667 609.317 753.755 605.116 C 755.578 602.636 758.098 600.702 761.3 600.582 C 765.862 600.41 768.416 604.074 771.141 607.144 L 770.242 608.84 L 773.713 613.414 C 776.193 614.852 778.337 617.174 778.806 620.11 C 779.764 626.099 775 633.466 771.182 637.658 C 768.611 640.48 765.038 642.493 761.803 644.45 C 754.19 638.704 749.535 633.188 748.041 623.516 C 747.815 622.055 747.734 620.602 747.648 619.128 z"/>
<path transform="translate(0,0)" fill="rgb(0,0,0)" d="M 747.648 619.128 C 748.862 614.106 750.667 609.317 753.755 605.116 C 755.578 602.636 758.098 600.702 761.3 600.582 C 765.862 600.41 768.416 604.074 771.141 607.144 L 770.242 608.84 L 761.892 605.589 C 759.628 606.786 759.091 610.568 757.243 612.713 C 756.736 612.316 756.298 611.812 755.723 611.523 C 755.334 611.327 754.865 611.374 754.436 611.299 C 753.187 613.735 752.732 615.013 753.454 617.756 C 754.978 623.54 760.65 629.915 764.836 633.998 C 762.177 633.709 760.395 632.434 758.697 630.385 C 755.707 626.778 753.127 623.038 749.916 619.576 C 752.302 625.613 755.529 635.993 761.767 638.812 C 763.253 639.483 764.12 639.037 765.645 638.776 C 770.132 635.388 775.341 624.762 775.423 619.081 C 775.45 617.256 774.382 615.056 773.713 613.414 C 776.193 614.852 778.337 617.174 778.806 620.11 C 779.764 626.099 775 633.466 771.182 637.658 C 768.611 640.48 765.038 642.493 761.803 644.45 C 754.19 638.704 749.535 633.188 748.041 623.516 C 747.815 622.055 747.734 620.602 747.648 619.128 z"/>
<path transform="translate(0,0)" fill="rgb(0,0,0)" d="M 664.292 665.989 A 238.486 238.486 0 0 1 654.588 664.765 C 649.756 664.007 642.653 663.283 639.637 659.184 C 641.608 658.696 643.896 659.478 645.883 659.855 C 647.53 656.83 645.604 648.955 645.949 644.955 C 650.183 639.534 652.511 633.296 656.22 627.594 C 659.676 626.334 662.867 625.449 665.524 622.819 C 665.742 621.049 665.959 619.892 666.602 618.197 A 131.583 131.583 0 0 1 671.029 619.94 C 671.591 619.659 672.616 619.159 673.085 618.861 C 674.287 618.098 674.933 617.358 676.306 616.834 C 682.683 614.404 694.132 619.75 699.505 622.906 C 704.796 626.013 709.196 629.626 710.808 635.703 C 710.299 635.862 698.874 627.642 695.619 626.697 L 693.606 628.074 C 690.059 624.498 686.248 621.622 680.975 621.64 C 672.311 621.669 664.358 627.616 658.783 633.734 C 654.606 638.316 648.442 646.472 649.133 653.158 C 649.424 655.979 650.387 657.982 652.502 659.884 C 657.759 664.61 669.069 664.042 675.476 663.009 C 686.304 661.264 702.151 656.839 710.969 650.332 C 712.784 651.06 712.04 650.435 713.03 652.394 C 712.454 653.287 712.465 653.377 711.536 654.201 C 708.578 656.828 702.881 658.634 699.167 660.077 C 680.612 667.285 657.923 673.661 637.859 670.503 C 626.791 668.761 615.519 663.564 609.049 654.078 C 601.354 642.795 602.733 630.402 605.357 617.832 C 605.676 624.59 605.861 631.71 607.264 638.339 C 609.394 648.403 614.153 657.064 623.072 662.569 C 635.341 670.141 650.814 669.215 664.292 665.989 z"/>
<path transform="translate(0,0)" fill="rgb(243,249,249)" d="M 710.969 650.332 C 702.151 656.839 686.304 661.264 675.476 663.009 C 669.069 664.042 657.759 664.61 652.502 659.884 C 650.387 657.982 649.424 655.979 649.133 653.158 C 648.442 646.472 654.606 638.316 658.783 633.734 C 664.358 627.616 672.311 621.669 680.975 621.64 C 686.248 621.622 690.059 624.498 693.606 628.074 C 694.282 629.919 694.148 630.482 695.798 631.652 C 699.798 634.488 705.974 638.883 706.796 644.086 C 706.973 645.204 706.878 645.313 706.679 646.268 C 704.296 647.455 703.154 647.189 700.605 647.023 C 701.38 649.002 701.516 649.102 703.112 650.315 C 705.748 650.413 708.33 650.471 710.969 650.332 z"/>
<path transform="translate(0,0)" fill="rgb(243,249,249)" d="M 159.524 194.382 C 171.198 204.052 181.715 216.825 191.894 228.065 C 222.631 262.004 250.482 298.378 281.388 332.061 C 317.859 371.81 359.55 405.891 396.435 445.014 C 378.108 477.927 377.376 495.721 346.563 521.73 C 327.999 535.984 307.328 550.192 295.588 571.064 C 281.003 544.482 262.619 519.871 248.077 493.168 A 758.962 758.962 0 0 1 159.524 194.382 z"/>
<path transform="translate(0,0)" fill="rgb(192,220,223)" d="M 568.741 1322.38 C 569.084 1321.68 568.933 1322.16 568.72 1320.88 C 555.288 1314.76 541.388 1309.54 528.099 1303.12 C 522.543 1300.44 518.311 1296.25 512.459 1294.08 C 512.138 1293.96 511.812 1293.85 511.488 1293.74 L 512.149 1293.15 C 513.747 1293.51 515.268 1293.81 516.726 1294.59 C 532.499 1302.98 549.734 1306.66 566.191 1313.11 C 568.386 1313.97 570.279 1314.64 572.57 1315.17 L 573.099 1313.91 C 634.604 1331.39 697.08 1339.77 759.624 1352.11 C 850.387 1370.02 933.317 1400.69 1004.42 1461.17 C 1038.62 1490.26 1069 1523.46 1090.95 1562.86 C 1124.12 1622.41 1141.57 1696.58 1122.46 1763.38 A 160.12 160.12 0 0 1 1046 1860.06 C 994.843 1888.12 909.073 1896.58 851.851 1885.34 C 905.441 1871.42 965.091 1813.47 992.273 1767.18 A 224.523 224.523 0 0 0 1016.53 1596.33 C 997.468 1524.36 942.557 1466.91 879.325 1430.53 C 839.219 1407.45 794.119 1388.83 749.839 1375.61 C 715.532 1365.36 680.659 1356.66 646.102 1347.28 C 628.6 1342.54 582.162 1331.46 568.741 1322.38 z"/>
<path transform="translate(0,0)" fill="rgb(192,220,223)" d="M 640.09 967.599 C 644.12 976.659 648.155 985.777 652.661 994.614 C 683.566 1055.24 734.451 1102.95 799.725 1124.05 C 928.646 1165.72 1080.02 1117.92 1194.19 1054.85 C 1241.04 1028.96 1284.72 997.19 1332.65 973.126 C 1413.54 932.511 1527.62 902.627 1616.34 931.933 C 1518.98 924.96 1426.33 970.058 1342.59 1014.06 L 1242.99 1067 C 1203.62 1087.9 1163.67 1108.61 1121.29 1122.84 C 1101.59 1129.46 1080.82 1131.35 1060.33 1134.16 L 1008.37 1141.73 L 1008.86 1142.91 C 1018.99 1140.65 1030.16 1140.5 1040.51 1139.3 A 5793.36 5793.36 0 0 1 1116.91 1130.67 C 1276.33 1112.84 1436 1100.17 1590.16 1155.36 A 463.603 463.603 0 0 1 1851.71 1392.9 C 1883.21 1459.99 1895.25 1538.64 1869.23 1609.56 C 1838.65 1692.95 1762.76 1739.12 1686.13 1774.88 C 1719.01 1744.68 1738.35 1720.98 1755.98 1679.57 C 1786.08 1608.92 1778.56 1521.07 1750.1 1450.88 C 1719.18 1374.63 1659.32 1310.9 1592.23 1264.87 C 1473.39 1183.33 1325.1 1148.52 1182.25 1149.95 C 1151.9 1150.25 1121.53 1152.38 1091.21 1153.74 C 1033.24 1156.34 974.749 1158.21 916.793 1154.94 C 867.288 1152.14 813.657 1147.51 767.61 1127.76 C 704.378 1100.64 654.844 1044.6 629.582 981.149 L 640.09 967.599 z"/>
<path transform="translate(0,0)" fill="rgb(163,197,202)" d="M 965.789 1145.64 C 972.687 1143.98 1001.06 1141.71 1008.37 1141.73 L 1008.86 1142.91 C 995.06 1146.11 980.073 1145.6 965.997 1147.27 C 963.232 1147.57 961.103 1148.3 958.53 1147.12 C 961.03 1145.47 962.839 1145.78 965.789 1145.64 z"/>
</svg>